<?xml version="1.0" encoding="UTF-8" standalone="no"?>
<!-- Created with Inkscape (http://www.inkscape.org/) -->

<svg
   xmlns:dc="http://purl.org/dc/elements/1.1/"
   xmlns:cc="http://creativecommons.org/ns#"
   xmlns:rdf="http://www.w3.org/1999/02/22-rdf-syntax-ns#"
   xmlns:svg="http://www.w3.org/2000/svg"
   xmlns="http://www.w3.org/2000/svg"
   xmlns:sodipodi="http://sodipodi.sourceforge.net/DTD/sodipodi-0.dtd"
   xmlns:inkscape="http://www.inkscape.org/namespaces/inkscape"
   version="1.1"
   id="svg2"
   xml:space="preserve"
   width="659.18665"
   height="708.53333"
   viewBox="0 0 659.18665 708.53333"
   sodipodi:docname="Cassetta.svg"
   inkscape:version="0.92.2 5c3e80d, 2017-08-06"><metadata
     id="metadata8"><rdf:RDF><cc:Work
         rdf:about=""><dc:format>image/svg+xml</dc:format><dc:type
           rdf:resource="http://purl.org/dc/dcmitype/StillImage" /><dc:title></dc:title></cc:Work></rdf:RDF></metadata><defs
     id="defs6" /><sodipodi:namedview
     pagecolor="#ffffff"
     bordercolor="#666666"
     borderopacity="1"
     objecttolerance="10"
     gridtolerance="10"
     guidetolerance="10"
     inkscape:pageopacity="0"
     inkscape:pageshadow="2"
     inkscape:window-width="1366"
     inkscape:window-height="709"
     id="namedview4"
     showgrid="false"
     inkscape:zoom="0.66616485"
     inkscape:cx="302.23112"
     inkscape:cy="368.91871"
     inkscape:window-x="0"
     inkscape:window-y="0"
     inkscape:window-maximized="1"
     inkscape:current-layer="g10" /><g
     id="g10"
     inkscape:groupmode="layer"
     inkscape:label="ink_ext_XXXXXX"
     transform="matrix(1.3333333,0,0,-1.3333333,0,708.53333)"><path
       inkscape:connector-curvature="0"
       id="path64"
       style="fill:#100f0d;fill-opacity:1;fill-rule:nonzero;stroke:none;stroke-width:0.1"
       d="m 109.498,80.9031 h 333.915 c 6.119,0 11.096,-4.934 11.096,-11 v -16.5 c 0,-6.0652 -4.977,-11 -11.096,-11 H 61.6914 c -6.1176,0 -11.0957,4.9348 -11.0957,11 v 16.5 c 0,6.066 4.9781,11 11.0957,11 z m -60.9023,-11 v -16.5 c 0,-7.1679 5.875,-13 13.0957,-13 H 443.413 c 7.221,0 13.096,5.8321 13.096,13 v 16.5 c 0,7.168 -5.875,13 -13.096,13 H 406.408 378.885 368.667 335.07 297.33 201.375 171.018 150.886 137.419 107.063 61.6914 c -7.2207,0 -13.0957,-5.832 -13.0957,-13 m 288.1023,59.2079 -3.235,-1.878 c -1.825,3.134 -2.888,6.763 -2.893,10.644 l 3.767,0.026 c 0,3.07 0.804,6.087 2.324,8.73 l -3.244,1.865 c 1.862,3.231 4.543,5.922 7.764,7.802 l 1.881,-3.233 c 2.646,1.541 5.672,2.359 8.752,2.369 l -0.011,3.764 0.066,0.003 c 3.85,0 7.455,-1.042 10.575,-2.836 l -1.862,-3.246 c 2.665,-1.529 4.892,-3.739 6.441,-6.394 l 3.229,1.884 c 1.834,-3.136 2.905,-6.768 2.915,-10.654 l -3.765,-0.054 c 0,-3.081 -0.81,-6.11 -2.343,-8.759 l 3.239,-1.872 c -1.869,-3.227 -4.554,-5.914 -7.78,-7.787 l -1.875,3.237 c -2.648,-1.534 -5.677,-2.348 -8.756,-2.35 l 0.003,-3.767 -0.021,-0.001 c -3.866,0 -7.484,1.05 -10.612,2.858 l 1.869,3.241 c -2.662,1.536 -4.884,3.752 -6.428,6.408 m 42.187,4.883 c 0.184,1.278 0.284,2.582 0.284,3.909 0,1.328 -0.1,2.632 -0.284,3.91 -1.902,13.207 -13.29,23.39 -27.016,23.39 -15.053,0 -27.3,-12.246 -27.3,-27.3 0,-15.052 12.247,-27.299 27.3,-27.299 13.726,0 25.114,10.183 27.016,23.39 m -56.849,3.909 c 0,16.451 13.382,29.834 29.833,29.834 11.934,0 22.25,-7.046 27.016,-17.196 1.804,-3.84 2.818,-8.122 2.818,-12.638 0,-4.515 -1.014,-8.797 -2.818,-12.637 -4.766,-10.149 -15.082,-17.196 -27.016,-17.196 -16.451,0 -29.833,13.383 -29.833,29.833 m 56.849,-20.34 c 4.277,5.666 6.818,12.712 6.818,20.34 0,7.63 -2.541,14.675 -6.818,20.341 -6.18,8.19 -15.991,13.493 -27.016,13.493 -18.656,0 -33.833,-15.177 -33.833,-33.834 0,-18.655 15.177,-33.833 33.833,-33.833 11.025,0 20.836,5.304 27.016,13.493 m -206.238,9.709 c -1.869,-3.227 -4.554,-5.914 -7.777,-7.787 l -1.875,3.237 c -2.648,-1.534 -5.677,-2.347 -8.758,-2.35 l 0.004,-3.767 -0.023,-0.001 c -1.136,0 -2.243,0.115 -3.332,0.287 -2.615,0.414 -5.072,1.296 -7.281,2.572 l 1.87,3.24 c -2.662,1.535 -4.886,3.752 -6.429,6.408 l -3.233,-1.877 c -1.825,3.134 -2.889,6.762 -2.894,10.642 l 3.768,0.027 c 0,3.069 0.803,6.087 2.322,8.73 l -3.242,1.865 c 1.861,3.231 4.543,5.922 7.764,7.802 l 1.881,-3.233 c 1.695,0.988 3.549,1.674 5.474,2.046 1.075,0.207 2.174,0.319 3.279,0.323 l -0.013,3.764 0.066,0.003 c 3.85,0 7.455,-1.042 10.575,-2.836 l -1.861,-3.246 c 2.665,-1.529 4.892,-3.739 6.442,-6.394 l 3.228,1.884 c 1.834,-3.136 2.904,-6.769 2.915,-10.654 l -3.767,-0.054 c 0,-3.081 -0.809,-6.11 -2.34,-8.76 z m -18.429,37.931 c -1.129,0 -2.239,-0.076 -3.332,-0.211 -13.487,-1.649 -23.968,-13.164 -23.968,-27.089 0,-13.923 10.481,-25.439 23.968,-27.088 1.093,-0.134 2.203,-0.211 3.332,-0.211 15.053,0 27.301,12.247 27.301,27.299 0,15.054 -12.248,27.3 -27.301,27.3 m 0,-57.133 c -1.127,0 -2.238,0.069 -3.332,0.191 -14.887,1.664 -26.5,14.319 -26.5,29.642 0,15.324 11.613,27.98 26.5,29.644 1.094,0.122 2.205,0.19 3.332,0.19 16.45,0 29.835,-13.383 29.835,-29.834 0,-16.45 -13.385,-29.833 -29.835,-29.833 m 0,63.667 c -1.123,0 -2.236,-0.057 -3.332,-0.165 -17.097,-1.68 -30.5,-16.137 -30.5,-33.669 0,-17.53 13.403,-31.987 30.5,-33.667 1.096,-0.108 2.209,-0.166 3.332,-0.166 18.657,0 33.835,15.178 33.835,33.833 0,18.657 -15.178,33.834 -33.835,33.834 m 42.5,-33.833 c 0,-23.435 -19.065,-42.5009 -42.5,-42.5009 -1.121,0 -2.232,0.0571 -3.332,0.143 -21.882,1.7078 -39.168,20.0459 -39.168,42.3579 0,22.313 17.286,40.65 39.168,42.357 1.1,0.086 2.211,0.143 3.332,0.143 23.435,0 42.5,-19.066 42.5,-42.5 m 229.592,-8.618 -0.738,0.15 0.738,3.642 z m -111.941,8.618 c 0,20.678 16.822,37.5 37.5,37.5 10.605,0 20.189,-4.433 27.016,-11.533 6.485,-6.744 10.484,-15.894 10.484,-25.967 0,-10.073 -3.999,-19.223 -10.484,-25.967 -6.827,-7.101 -16.411,-11.534 -27.016,-11.534 -20.678,0 -37.5,16.823 -37.5,37.501 m -26.368,43.833 c -8.589,-12.476 -13.632,-27.574 -13.632,-43.833 0,-15.986 4.867,-30.854 13.193,-43.2079 h -75.164 c 8.992,12.0759 14.32,27.0299 14.32,43.2079 0,16.461 -5.523,31.651 -14.801,43.833 z M 86.8363,90.6961 H 418.268 c 6.753,0 12.042,3.4871 12.042,7.9379 v 44.093 10.057 25.017 c 0,4.45 -5.289,7.936 -12.042,7.936 h -5.49 -29 -4.893 -58.926 -29 H 208.631 186.127 150.886 122.31 99.8059 86.8363 c -6.7539,0 -12.0437,-3.486 -12.0437,-7.936 V 98.634 c 0,-4.4508 5.2898,-7.9379 12.0437,-7.9379 m 391.9777,187.8419 -10.241,2.565 c 0.76,2.02 2.695,3.468 4.979,3.468 2.941,0 5.333,-2.393 5.333,-5.333 0,-0.239 -0.04,-0.468 -0.071,-0.7 m -10.584,0.589 9.948,-2.492 c -0.916,-1.622 -2.636,-2.731 -4.626,-2.731 -2.903,0 -5.26,2.333 -5.322,5.223 m 10.584,-261.5559 -10.241,2.5648 c 0.759,2.02 2.695,3.47 4.979,3.47 2.941,0 5.333,-2.393 5.333,-5.3329 0,-0.241 -0.04,-0.4691 -0.071,-0.7019 m -5.262,-4.632 c -2.903,0 -5.261,2.3328 -5.322,5.2218 l 9.948,-2.491 c -0.916,-1.6219 -2.635,-2.7308 -4.626,-2.7308 m -13,29.5589 c 0,-5.657 -4.486,-10.2609 -10,-10.2609 H 54.5527 c -5.514,0 -10,4.6039 -10,10.2609 v 163.479 c 0,5.658 4.486,10.26 10,10.26 h 9.4047 2.0668 377.1668 2.042 5.319 c 5.514,0 10,-4.602 10,-10.26 z M 38.2164,17.5711 27.9746,20.1359 c 0.759,2.02 2.6957,3.47 4.9789,3.47 2.941,0 5.334,-2.393 5.334,-5.3329 0,-0.241 -0.0398,-0.4691 -0.0711,-0.7019 m -5.2629,-4.632 c -2.9031,0 -5.2609,2.3339 -5.3222,5.2218 l 9.9492,-2.491 c -0.916,-1.6219 -2.6364,-2.7308 -4.627,-2.7308 m 4.5582,265.1949 c -0.916,-1.621 -2.6351,-2.73 -4.6262,-2.73 -2.9031,0 -5.2609,2.333 -5.3218,5.223 z m -4.6262,7.937 c 2.9411,0 5.334,-2.393 5.334,-5.334 0,-0.238 -0.0398,-0.467 -0.0711,-0.7 l -10.2418,2.566 c 0.7598,2.02 2.6957,3.468 4.9789,3.468 m 21.2563,-4.708 c 3.1668,3.742 7.8875,6.124 13.1609,6.124 2.1118,0 4.1282,-0.399 6,-1.098 v 0.098 h 21.552 2.0496 l -0.1738,0.537 -2.2012,6.792 -0.4477,1.382 1.902,0.618 1.9031,0.615 0.1988,-0.615 0.6489,-2 1.8306,-5.651 0.543,-1.678 h 39.878 c -1.379,-0.425 -2.643,-1.112 -3.738,-2 h -35.491 l 6.23,-18.418 30.389,0.124 c 1.725,-1.074 3.75,-1.706 5.927,-1.706 2.175,0 4.201,0.632 5.925,1.706 h 29.758 c 0.234,-1.444 0.741,-2.794 1.47,-4 h -72.473 l 4.953,-15.281 0.154,-0.394 c 2.616,-6.676 4.681,-11.948 19.463,-11.948 h 243.999 c 8.413,0 11.729,4.911 14.119,12.284 l 4.979,15.362 -72.142,-0.023 c 0.73,1.206 1.236,2.556 1.468,4 h 30.218 c 1.723,-1.074 3.75,-1.706 5.926,-1.706 2.175,0 4.202,0.632 5.925,1.706 l 29.901,0.022 5.923,18.272 h -34.694 c -1.097,0.888 -2.361,1.575 -3.741,2 h 39.083 l 2.375,7.329 0.574,1.772 4.459,-0.082 -0.829,-1.69 -2.375,-7.329 h 25.013 c 1.797,0.637 3.721,1 5.732,1 9.512,0 17.25,-7.737 17.25,-17.25 0,-3.081 -0.823,-5.968 -2.243,-8.474 l -8.429,-41.526 h -2.041 l 7.68,37.835 c -3.126,-3.138 -7.447,-5.085 -12.217,-5.085 -9.511,0 -17.25,7.739 -17.25,17.25 0,5.916 2.995,11.143 7.545,14.25 h -21.687 l -12.598,-38.866 c -2.412,-7.443 -6.429,-15.051 -17.924,-15.051 H 133.553 c -17.511,0 -20.396,7.366 -23.186,14.489 l -0.218,0.562 -12.5963,38.866 H 87.0004 77.0063 c 0.7089,-0.483 1.3691,-1.029 1.9972,-1.611 3.4031,-3.154 5.5492,-7.644 5.5492,-12.639 0,-9.511 -7.739,-17.25 -17.25,-17.25 -4.6964,0 -8.9543,1.892 -12.0683,4.946 l 9.7554,-37.696 h -2.0675 l -10.8438,41.907 c -1.289,2.416 -2.0258,5.17 -2.0258,8.093 0,4.24 1.543,8.121 4.0891,11.126 m 305.0012,3.124 c 0.937,0.319 1.935,0.5 2.977,0.5 1.042,0 2.04,-0.181 2.975,-0.5 3.644,-1.242 6.275,-4.69 6.275,-8.75 0,-5.1 -4.15,-9.25 -9.25,-9.25 -5.102,0 -9.25,4.15 -9.25,9.25 0,4.06 2.63,7.508 6.273,8.75 m -205.59,-8.75 c 0,-5.1 -4.151,-9.25 -9.25,-9.25 -5.101,0 -9.25,4.15 -9.25,9.25 0,4.06 2.631,7.508 6.275,8.75 0.935,0.319 1.933,0.5 2.975,0.5 1.042,0 2.039,-0.181 2.974,-0.5 3.643,-1.242 6.276,-4.69 6.276,-8.75 m 46.777,-7.75 c 0,-0.613 -0.063,-1.212 -0.179,-1.794 -0.295,-1.494 -0.95,-2.858 -1.873,-4 -1.696,-2.104 -4.292,-3.456 -7.198,-3.456 -2.908,0 -5.502,1.352 -7.2,3.456 -0.922,1.142 -1.577,2.506 -1.873,4 -0.114,0.582 -0.177,1.181 -0.177,1.794 0,5.101 4.149,9.25 9.25,9.25 5.101,0 9.25,-4.149 9.25,-9.25 m 62.555,-19.417 c 0,-4.488 -3.638,-8.127 -8.127,-8.127 -4.488,0 -8.127,3.639 -8.127,8.127 0,4.489 3.639,8.127 8.127,8.127 4.489,0 8.127,-3.638 8.127,-8.127 m 61.249,19.417 c 0,-0.613 -0.063,-1.212 -0.177,-1.794 -0.295,-1.494 -0.952,-2.858 -1.874,-4 -1.697,-2.104 -4.291,-3.456 -7.199,-3.456 -2.908,0 -5.502,1.352 -7.2,3.456 -0.921,1.142 -1.577,2.506 -1.872,4 -0.114,0.582 -0.178,1.181 -0.178,1.794 0,5.101 4.15,9.25 9.25,9.25 5.101,0 9.25,-4.149 9.25,-9.25 m -27.765,16.5 v -18.25 h -4 v 18.25 h -78.651 v -18.294 h 90.074 c 0.233,-1.444 0.739,-2.794 1.468,-4 H 200.705 c 0.729,1.206 1.234,2.556 1.467,4 h 7.546 v 18.294 h -58.361 c -1.096,0.888 -2.359,1.575 -3.738,2 h 62.099 v 7.329 2 h 4 v -2 -7.329 h 78.651 v 7.329 2 h 4 v -2 -7.329 h 62.435 c -1.379,-0.425 -2.642,-1.112 -3.74,-2 z m 85.664,116.43 c -1.283,-0.589 -2.534,-1.245 -3.765,-1.956 -0.454,0.187 -0.912,0.358 -1.37,0.509 -1.649,0.531 -3.317,0.837 -4.994,0.986 -3.349,0.284 -6.754,-0.074 -10.03,-1.153 -3.263,-1.075 -6.402,-2.957 -8.835,-5.601 -1.224,-1.308 -2.256,-2.795 -3.093,-4.365 -0.201,-0.395 -0.404,-0.786 -0.599,-1.229 -0.228,-0.499 -0.294,-0.682 -0.5,-1.192 -0.312,-0.834 -0.593,-1.689 -0.805,-2.573 -0.881,-3.52 -0.697,-7.453 0.621,-10.922 1.298,-3.484 3.546,-6.468 6.213,-8.834 2.68,-2.373 5.799,-4.181 9.186,-5.372 3.385,-1.179 7.09,-1.766 10.921,-1.255 1.908,0.262 3.843,0.834 5.645,1.79 0.225,0.121 0.442,0.232 0.693,0.389 0.221,0.138 0.53,0.324 0.662,0.421 0.201,0.142 0.255,0.167 0.577,0.405 l 0.53,0.399 c 0.706,0.534 1.388,1.101 2.059,1.684 5.347,4.694 9.34,11.104 11.059,18.2 0.869,3.543 1.207,7.251 0.85,10.991 -0.233,2.314 -0.713,4.67 -1.607,6.952 0.227,-0.035 0.466,-0.063 0.687,-0.1 2.174,-0.336 4.336,-0.771 6.413,-1.317 3.883,-1.032 7.546,-2.498 10.648,-4.579 -1.903,-4.342 -4.029,-8.556 -6.41,-12.57 -3.717,-6.242 -8.056,-12.11 -13.254,-16.608 -1.297,-1.117 -2.642,-2.151 -4.04,-3.027 l -2.301,-1.367 c -0.78,-0.443 -1.492,-0.785 -2.238,-1.187 -3.068,-1.538 -6.292,-2.73 -9.557,-3.427 -6.52,-1.443 -13.298,-0.863 -19.135,1.932 -5.838,2.752 -10.685,7.553 -13.604,13.254 -2.928,5.666 -3.928,12.331 -2.067,18.022 0.432,1.43 1.082,2.768 1.852,4.025 0.761,1.266 1.698,2.425 2.766,3.466 2.099,2.119 4.767,3.718 7.636,4.929 5.793,2.399 12.418,3.097 18.944,2.946 3.274,-0.076 6.556,-0.332 9.817,-0.792 l 1.223,-0.161 c 0.298,-0.043 0.277,-0.029 0.51,-0.077 0.23,-0.039 0.423,-0.077 0.471,-0.1 0.302,-0.073 0.692,-0.212 1.059,-0.383 -0.962,-0.35 -1.91,-0.731 -2.838,-1.153 m -11.91,-8.088 c -1.845,0.139 -3.735,-0.079 -5.552,-0.742 -0.783,-0.295 -1.554,-0.67 -2.337,-1.163 l -0.417,-0.277 c -0.285,-0.195 -0.346,-0.258 -0.529,-0.392 -0.307,-0.245 -0.623,-0.461 -0.917,-0.737 -1.2,-1.033 -2.332,-2.292 -3.169,-3.868 -0.433,-0.774 -0.738,-1.659 -0.961,-2.562 -0.183,-0.922 -0.28,-1.881 -0.187,-2.833 0.159,-1.907 0.916,-3.699 1.963,-5.124 2.118,-2.889 5.16,-4.565 8.267,-5.473 1.565,-0.447 3.175,-0.689 4.787,-0.742 0.4,-0.023 0.847,-0.006 1.27,-0.005 0.454,10e-4 0.73,0.038 1.104,0.056 0.088,0.002 0.443,0.028 0.723,0.075 0.263,0.042 0.534,0.073 0.782,0.147 0.515,0.116 0.991,0.293 1.459,0.482 1.824,0.815 3.205,2.029 4.323,3.323 1.119,1.304 1.996,2.72 2.707,4.199 1.408,2.959 2.204,6.183 2.22,9.564 0.011,1.687 -0.222,3.418 -0.718,5.121 -0.126,0.419 -0.319,0.962 -0.465,1.331 l -0.213,0.504 c -0.033,0.1 -0.295,0.64 -0.395,0.8 -0.398,0.683 -0.867,1.247 -1.359,1.74 1.889,1.02 3.834,1.863 5.783,2.46 1.201,-2.02 1.913,-4.554 2.171,-7.125 0.295,-2.906 0.05,-5.91 -0.64,-8.789 -1.37,-5.781 -4.586,-11.024 -8.961,-14.913 -0.553,-0.483 -1.112,-0.956 -1.695,-1.401 l -0.437,-0.333 c 0.002,0.001 -0.284,-0.201 -0.412,-0.292 -0.195,-0.143 -0.242,-0.148 -0.36,-0.228 -0.089,-0.061 -0.234,-0.134 -0.362,-0.206 -1.047,-0.564 -2.239,-0.94 -3.509,-1.124 -2.546,-0.362 -5.338,0.011 -7.945,0.91 -5.216,1.779 -9.883,5.654 -11.684,10.384 -0.904,2.352 -1.051,4.87 -0.472,7.327 0.14,0.614 0.335,1.224 0.555,1.829 0.078,0.199 0.284,0.735 0.381,0.929 0.11,0.26 0.257,0.551 0.4,0.839 0.592,1.131 1.303,2.178 2.149,3.099 3.343,3.731 8.806,5.404 13.95,4.996 0.187,-0.014 0.369,-0.051 0.554,-0.071 -0.633,-0.539 -1.25,-1.113 -1.852,-1.715 m 4.936,-8.964 c -0.026,-0.9 -0.28,-1.505 -0.563,-1.752 -0.263,-0.261 -0.775,-0.456 -1.503,-0.361 -0.689,0.067 -1.522,0.465 -2.023,0.916 -0.574,0.528 -0.681,0.79 -0.704,1.414 -0.005,0.613 0.298,1.506 0.8,2.368 0.164,0.287 0.351,0.575 0.549,0.86 0.234,-0.069 0.467,-0.145 0.693,-0.234 0.927,-0.349 1.775,-0.889 2.272,-1.431 0.255,-0.266 0.373,-0.516 0.41,-0.633 l 0.015,-0.02 0.045,-0.483 c 0.01,-0.269 0.021,-0.394 0.009,-0.644 m 0.317,7.504 c 0.639,0.555 1.308,1.08 1.989,1.591 0.271,-0.161 0.527,-0.326 0.747,-0.5 0.366,-0.291 0.633,-0.596 0.772,-0.83 0.074,-0.16 -0.01,0.061 0.091,-0.18 l 0.218,-0.503 c 0.119,-0.311 0.166,-0.459 0.258,-0.733 0.326,-1.094 0.512,-2.269 0.512,-3.478 10e-4,-0.138 -0.018,-0.277 -0.021,-0.416 l -0.01,0.041 c -0.315,1.134 -0.894,2.021 -1.515,2.715 -0.927,1.022 -1.96,1.742 -3.041,2.293 m 2.183,-13.277 c -0.958,-1.545 -2.181,-2.82 -3.365,-3.352 -0.188,-0.069 -0.37,-0.147 -0.544,-0.185 l -0.254,-0.05 c -0.066,-0.019 -0.061,-0.02 -0.324,-0.037 -0.328,-0.018 -0.751,-0.067 -1,-0.059 -0.279,0.005 -0.532,-0.016 -0.831,-10e-4 -1.19,0.031 -2.363,0.2 -3.475,0.509 -2.211,0.608 -4.24,1.817 -5.385,3.387 -1.14,1.583 -1.333,3.235 -0.457,4.87 0.423,0.82 1.094,1.624 1.922,2.344 0.19,0.19 0.431,0.349 0.646,0.527 l 0.271,0.212 0.415,0.283 c 0.234,0.141 0.507,0.283 0.795,0.419 -0.311,-0.805 -0.544,-1.69 -0.598,-2.704 -0.042,-0.937 0.102,-1.979 0.525,-2.917 0.207,-0.464 0.459,-0.914 0.756,-1.299 0.251,-0.368 0.784,-0.904 0.927,-1.029 0.716,-0.652 1.397,-1.088 2.204,-1.476 0.79,-0.374 1.64,-0.645 2.55,-0.764 0.906,-0.125 1.876,-0.1 2.86,0.151 0.821,0.209 1.649,0.61 2.362,1.171 m -233.99,-72.543 c 13.498,6.624 28.034,14.755 43.03,24.919 7.485,5.096 15.089,10.696 22.592,17.031 7.48,6.351 14.95,13.368 21.567,21.793 3.266,4.236 6.375,8.814 8.641,14.115 1.13,2.643 2.018,5.497 2.419,8.545 0.332,2.524 0.266,5.22 -0.362,7.841 1.549,1.033 3.107,2.09 4.638,3.26 6.456,4.826 12.307,10.596 17.114,17.204 4.806,6.609 8.523,14.038 11.098,21.836 2.587,7.807 4.073,15.94 4.932,24.1 0.873,8.164 1.118,16.373 1.472,24.511 0.189,4.067 0.413,8.123 0.891,12.102 0.486,3.969 1.235,7.901 2.733,11.378 1.466,3.494 3.917,6.282 7.196,7.804 0.399,0.205 0.839,0.347 1.255,0.526 0.206,0.095 0.359,0.122 0.648,0.222 l 0.736,0.237 1.473,0.475 c 0.481,0.141 0.943,0.247 1.415,0.372 l 1.409,0.368 1.462,0.302 c 0.974,0.209 1.953,0.4 2.948,0.537 7.926,1.236 16.127,1.201 24.335,0.769 8.217,-0.432 16.483,-1.255 24.807,-1.99 16.621,-1.465 33.645,-2.661 50.716,-0.442 2.133,0.249 4.251,0.637 6.375,0.987 l 3.17,0.642 1.529,0.314 c 0.406,0.072 0.861,0.153 1.299,0.197 0.875,0.103 1.715,0.109 2.428,0.016 0.713,-0.095 1.255,-0.322 1.508,-0.534 0.249,-0.218 0.338,-0.365 0.404,-0.76 0.053,-0.388 -0.021,-0.984 -0.269,-1.59 -0.481,-1.23 -1.556,-2.413 -2.76,-3.025 -0.3,-0.158 -0.61,-0.286 -0.924,-0.377 -0.093,-0.032 -0.326,-0.082 -0.335,-0.077 -0.159,-0.019 -0.36,-0.043 -0.585,-0.057 -0.9,-0.069 -1.934,-0.089 -2.949,-0.101 -4.113,-0.028 -8.334,0.092 -12.536,0.203 -16.843,0.498 -33.782,1.148 -50.771,1.333 -8.497,0.092 -17.01,0.087 -25.562,-0.185 -4.276,-0.14 -8.561,-0.349 -12.875,-0.707 -4.322,-0.384 -8.635,-0.829 -13.135,-1.893 -1.131,-0.28 -2.279,-0.606 -3.474,-1.054 -1.2,-0.476 -2.45,-0.98 -3.888,-2.158 -0.7,-0.604 -1.521,-1.454 -2.039,-2.817 -0.245,-0.676 -0.387,-1.442 -0.361,-2.171 0.059,-0.902 0.098,-1.132 0.332,-1.886 0.362,-1.096 0.978,-2.018 1.613,-2.709 0.64,-0.696 1.306,-1.213 1.946,-1.631 1.286,-0.831 2.505,-1.336 3.687,-1.756 1.183,-0.414 2.332,-0.725 3.469,-0.986 2.269,-0.516 4.484,-0.844 6.682,-1.102 8.775,-0.96 17.337,-0.955 25.888,-0.844 17.078,0.318 34.002,1.434 50.84,2.489 7.993,0.484 16,1.001 23.855,1.179 l -0.153,-0.047 c -3.778,-1.089 -7.782,-1.875 -11.814,-2.537 -4.04,-0.656 -8.132,-1.175 -12.241,-1.619 -8.219,-0.887 -16.504,-1.467 -24.788,-1.974 -16.588,-1.022 -33.143,-1.45 -49.798,-2.468 -4.193,-0.296 -8.313,-0.561 -12.753,-1.287 -1.146,-0.212 -2.245,-0.399 -3.723,-0.921 -0.383,-0.144 -0.801,-0.312 -1.339,-0.616 -0.518,-0.385 -1.328,-0.628 -2.254,-2.417 -1.039,-2.154 0.218,-4.588 0.789,-5.036 0.624,-0.721 1.129,-1.029 1.444,-1.25 1.967,-1.344 4.156,-2.414 6.269,-3.23 4.274,-1.647 8.56,-2.557 12.804,-3.211 4.247,-0.643 8.463,-0.982 12.654,-1.177 8.38,-0.366 16.659,-0.135 24.863,0.341 8.204,0.484 16.334,1.238 24.405,2.124 8.067,0.886 16.077,1.917 24.026,2.982 3.966,0.527 7.922,1.056 11.871,1.583 3.915,0.497 7.896,1.029 11.588,1.282 0.358,0.024 0.695,0.033 1.027,0.042 0.768,-1.579 1.535,-3.251 2.183,-4.984 1.326,-3.46 2.329,-7.068 3.076,-10.736 1.481,-7.35 1.934,-14.942 1.677,-22.488 -0.547,-15.11 -3.775,-30.072 -8.911,-44.041 -0.475,-1.28 -0.974,-2.549 -1.484,-3.813 -3.39,2.205 -7.205,3.72 -11.117,4.812 -2.237,0.619 -4.502,1.102 -6.829,1.492 -0.588,0.101 -1.17,0.194 -1.729,0.27 l -0.852,0.124 c -0.343,0.044 -0.702,0.087 -1.045,0.103 l -0.098,10e-4 c -1.148,1.567 -2.61,3.032 -4.457,4.087 -1.013,0.575 -2.018,0.998 -3.249,1.307 -0.36,0.091 -0.584,0.132 -0.772,0.167 -0.182,0.039 -0.624,0.104 -0.746,0.117 l -1.302,0.179 c -3.463,0.507 -6.993,0.81 -10.567,0.911 -3.573,0.097 -7.201,-0.017 -10.851,-0.528 -3.643,-0.506 -7.324,-1.35 -10.883,-2.822 -3.542,-1.467 -7.012,-3.495 -9.891,-6.351 -1.45,-1.401 -2.754,-2.993 -3.824,-4.739 -1.079,-1.737 -1.983,-3.601 -2.594,-5.556 -0.625,-1.95 -1.038,-3.96 -1.218,-5.983 -0.163,-2.024 -0.119,-4.051 0.104,-6.049 0.485,-3.989 1.696,-7.848 3.498,-11.396 3.59,-7.092 9.517,-13.052 16.848,-16.571 7.318,-3.574 15.943,-4.317 23.812,-2.574 3.958,0.836 7.735,2.226 11.311,4.004 0.893,0.468 1.85,0.946 2.688,1.42 l 1.204,0.705 0.602,0.353 c 0.134,0.079 0.489,0.279 0.696,0.421 1.762,1.096 3.389,2.338 4.928,3.652 6.14,5.291 10.839,11.7 14.885,18.399 2.094,3.497 3.987,7.103 5.715,10.79 0.788,-1.154 1.453,-2.382 1.978,-3.671 1.452,-3.502 1.986,-7.324 2.08,-11.08 0.092,-3.767 -0.245,-7.495 -0.706,-11.121 -0.955,-7.257 -2.393,-14.134 -3.447,-20.694 -1.068,-6.554 -1.809,-12.819 -1.667,-18.726 0.114,-5.892 1.188,-11.432 3.322,-16.072 1.507,-3.313 3.51,-6.091 5.672,-8.371 H 126.728 c 5.416,2.305 11.029,4.866 16.841,7.733 M 417.437,484.3 c -0.193,0.252 -0.1,0.245 0,0 M 234.756,398.408 c -1.001,-0.719 -1.997,-1.437 -2.997,-2.155 -0.449,1.021 -1.07,1.958 -1.787,2.752 -0.767,0.84 -1.574,1.513 -2.507,2.106 -0.342,0.206 -0.664,0.366 -0.937,0.482 -0.288,0.122 -0.58,0.234 -0.869,0.322 -0.578,0.177 -1.152,0.297 -1.705,0.366 -1.111,0.14 -2.162,0.121 -3.164,0.029 -3.998,-0.427 -7.443,-1.756 -10.796,-3.206 -3.337,-1.481 -6.499,-3.245 -9.587,-5.121 -6.167,-3.77 -11.983,-8.115 -17.453,-12.963 -2.728,-2.433 -5.371,-4.998 -7.816,-7.811 -1.221,-1.412 -2.394,-2.881 -3.454,-4.481 -1.046,-1.61 -2.047,-3.307 -2.574,-5.433 -0.241,-1.055 -0.358,-2.311 0.112,-3.601 0.456,-1.309 1.576,-2.276 2.615,-2.756 1.064,-0.513 2.103,-0.705 3.095,-0.844 1.002,-0.128 2.001,-0.158 2.985,-0.115 3.949,0.181 7.63,1.373 11.104,2.849 6.929,3.052 13.217,7.268 19.042,12.074 2.895,2.429 5.709,4.976 8.29,7.802 1.288,1.415 2.524,2.891 3.623,4.522 0.533,0.802 1.036,1.64 1.443,2.581 1.734,1.199 3.464,2.406 5.191,3.619 0.177,0.124 0.352,0.249 0.529,0.373 -0.293,-1.115 -0.757,-2.272 -1.34,-3.392 -1.419,-2.753 -3.438,-5.338 -5.57,-7.798 -2.156,-2.455 -4.521,-4.755 -6.996,-6.91 -2.477,-2.148 -5.068,-4.167 -7.755,-5.945 -2.695,-1.731 -5.608,-3.411 -8.466,-4.936 -5.746,-3.063 -11.68,-5.747 -17.76,-7.281 -3.026,-0.739 -6.124,-1.174 -9.004,-0.891 -2.883,0.26 -5.41,1.505 -6.41,3.742 -1.052,2.24 -0.783,5.206 0.039,7.945 0.837,2.772 2.225,5.432 3.825,7.929 3.248,4.995 7.424,9.355 11.964,13.115 2.275,1.877 4.652,3.612 7.105,5.196 2.398,1.55 5.046,3.024 7.603,4.444 5.15,2.83 10.32,5.461 15.554,7.57 2.613,1.052 5.24,1.97 7.861,2.666 2.612,0.679 5.237,1.147 7.705,1.141 2.462,-0.006 4.723,-0.52 6.353,-1.692 1.65,-1.124 2.767,-3.007 3.453,-5.176 0.066,-0.205 0.098,-0.417 0.153,-0.624 -0.231,-0.166 -0.469,-0.326 -0.697,-0.494 m -14.813,-10.587 c -4.688,-3.279 -9.401,-6.483 -14.187,-9.52 -3.28,-2.071 -6.594,-4.075 -9.986,-5.857 -1.696,-0.883 -3.415,-1.722 -5.154,-2.394 -0.868,-0.334 -1.745,-0.627 -2.604,-0.821 -0.428,-0.094 -0.853,-0.168 -1.244,-0.183 -0.22,-0.02 -0.349,-10e-4 -0.492,-0.007 -0.302,0.045 -0.402,0.057 -0.549,0.107 -0.158,0.046 -0.271,0.107 -0.355,0.152 l -0.089,0.088 c -0.018,0.006 -0.045,0.225 0.074,0.549 0.243,0.648 0.785,1.394 1.363,2.068 1.18,1.367 2.606,2.615 4.064,3.796 2.941,2.355 6.12,4.442 9.387,6.329 3.274,1.877 6.662,3.552 10.153,4.858 1.743,0.648 3.517,1.205 5.302,1.563 0.447,0.089 0.893,0.165 1.338,0.227 l 0.648,0.077 0.68,0.05 c 0.406,0.018 0.807,0.002 1.103,-0.083 0.312,-0.086 0.442,-0.196 0.499,-0.311 0.083,-0.111 0.094,-0.371 0.049,-0.688 m -0.027,2.932 c -0.62,0.163 -1.178,0.171 -1.715,0.154 l -0.737,-0.049 -0.762,-0.084 c -0.494,-0.066 -0.982,-0.146 -1.468,-0.241 -1.936,-0.378 -3.799,-0.952 -5.622,-1.617 -3.642,-1.34 -7.122,-3.04 -10.491,-4.945 -3.365,-1.916 -6.628,-4.028 -9.705,-6.462 -1.532,-1.229 -3.029,-2.511 -4.379,-4.055 -0.665,-0.786 -1.328,-1.593 -1.785,-2.752 -0.199,-0.57 -0.4,-1.383 -0.006,-2.27 0.193,-0.436 0.525,-0.753 0.85,-0.99 0.323,-0.212 0.65,-0.356 0.954,-0.451 0.315,-0.101 0.692,-0.164 0.867,-0.187 0.339,-0.028 0.693,-0.045 0.958,-0.023 0.576,0.023 1.105,0.117 1.624,0.225 1.028,0.228 1.994,0.549 2.935,0.903 1.878,0.714 3.655,1.572 5.407,2.471 3.496,1.811 6.863,3.819 10.191,5.896 3.467,2.17 6.887,4.423 10.283,6.724 -0.769,-1.007 -1.601,-1.978 -2.463,-2.923 -2.504,-2.715 -5.244,-5.232 -8.123,-7.544 -5.766,-4.595 -11.986,-8.681 -18.673,-11.377 -3.329,-1.32 -6.811,-2.311 -10.216,-2.37 -0.847,-0.009 -1.683,0.049 -2.493,0.178 -0.814,0.136 -1.588,0.336 -2.16,0.65 -0.586,0.32 -0.915,0.682 -1.046,1.122 -0.146,0.444 -0.12,1.087 0.077,1.788 0.395,1.412 1.282,2.897 2.27,4.275 0.996,1.391 2.137,2.719 3.33,4 2.397,2.56 5.028,4.935 7.743,7.182 5.448,4.48 11.264,8.475 17.247,11.96 2.997,1.731 6.065,3.294 9.163,4.627 3.078,1.306 6.298,2.416 9.257,2.671 0.73,0.06 1.429,0.051 2.043,-0.036 0.308,-0.043 0.586,-0.111 0.836,-0.191 0.128,-0.039 0.241,-0.088 0.35,-0.133 0.126,-0.058 0.188,-0.098 0.222,-0.109 1.105,-0.727 1.979,-1.656 2.398,-2.667 0.14,-0.313 0.23,-0.656 0.294,-1.009 -0.742,-0.532 -1.484,-1.068 -2.225,-1.6 -1.117,-0.795 -2.234,-1.583 -3.354,-2.37 -0.041,0.112 -0.075,0.224 -0.134,0.339 -0.387,0.739 -1.147,1.146 -1.742,1.29 m 194.102,115.811 c 0.083,0.201 0.03,0.036 0,0 M 480.387,297.816 H 429.67 c -2.6,2.418 -5.041,5.535 -6.743,9.439 -1.884,4.282 -2.815,9.432 -2.832,15.047 -0.036,5.625 0.744,11.703 1.878,18.162 1.118,6.468 2.644,13.326 3.717,20.763 0.518,3.719 0.922,7.593 0.874,11.639 -0.055,4.029 -0.564,8.287 -2.205,12.401 -0.855,2.196 -2.1,4.287 -3.633,6.177 0.925,2.147 1.804,4.315 2.627,6.507 5.468,14.698 8.923,30.326 9.581,46.427 0.306,8.042 -0.132,16.217 -1.726,24.326 -0.806,4.05 -1.906,8.08 -3.393,12.016 -0.73,1.966 -1.593,3.895 -2.555,5.873 l -0.684,1.319 c -0.082,-0.196 0.186,0.699 -2.137,2.304 -1.194,0.551 -1.588,0.502 -2.068,0.598 -0.832,0.093 -1.427,0.09 -2.023,0.088 -0.585,-0.007 -1.136,-0.03 -1.672,-0.061 -4.237,-0.271 -8.155,-0.8 -12.152,-1.3 -3.959,-0.523 -7.927,-1.047 -11.901,-1.571 -7.928,-1.05 -15.871,-2.06 -23.844,-2.925 -7.973,-0.865 -15.977,-1.594 -23.995,-2.055 -8.016,-0.456 -16.058,-0.661 -24.017,-0.299 -3.975,0.188 -7.933,0.516 -11.795,1.107 -2.175,0.336 -4.321,0.764 -6.398,1.299 1.483,0.119 2.976,0.227 4.464,0.327 16.355,0.98 33.036,1.394 49.755,2.399 8.371,0.489 16.765,1.12 25.195,2.04 4.215,0.465 8.438,1.009 12.677,1.707 4.239,0.707 8.488,1.539 12.782,2.785 2.147,0.633 4.306,1.361 6.501,2.381 1.095,0.513 2.204,1.103 3.32,1.857 1.112,0.768 2.25,1.675 3.298,3.051 0.277,0.53 0.408,0.161 1.117,2.242 0.644,2.16 -1.152,4.603 -1.903,4.878 -0.847,0.591 -1.368,0.743 -1.837,0.913 -0.463,0.152 -0.851,0.243 -1.215,0.319 -1.424,0.283 -2.569,0.361 -3.729,0.434 -2.288,0.125 -4.453,0.118 -6.615,0.085 -8.603,-0.176 -17.014,-0.758 -25.459,-1.286 -16.858,-1.079 -33.693,-2.36 -50.478,-2.761 -8.369,-0.17 -16.79,-0.207 -24.876,0.63 -2.009,0.222 -3.992,0.509 -5.859,0.921 -1.615,0.352 -3.238,0.858 -4.304,1.429 0.173,0.079 0.355,0.155 0.542,0.223 0.788,0.301 1.676,0.569 2.602,0.804 3.743,0.925 7.878,1.443 11.987,1.845 4.128,0.394 8.306,0.648 12.495,0.836 8.383,0.369 16.814,0.476 25.249,0.488 16.877,0.018 33.757,-0.424 50.668,-0.72 4.238,-0.061 8.453,-0.132 12.773,-0.053 1.092,0.029 2.167,0.057 3.368,0.16 0.3,0.026 0.622,0.062 0.986,0.117 0.513,0.078 0.79,0.166 1.202,0.284 0.693,0.218 1.358,0.503 1.986,0.843 2.509,1.379 4.425,3.521 5.476,6.216 0.51,1.352 0.808,2.902 0.56,4.604 -0.217,1.691 -1.246,3.512 -2.687,4.559 -1.431,1.071 -2.972,1.478 -4.335,1.651 -1.377,0.161 -2.656,0.102 -3.866,-0.051 -0.608,-0.075 -1.188,-0.182 -1.815,-0.306 l -1.557,-0.339 -3.001,-0.645 c -2.02,-0.355 -4.032,-0.75 -6.07,-1.011 -16.299,-2.321 -32.97,-1.414 -49.543,-0.153 -8.303,0.625 -16.623,1.348 -25.004,1.682 -8.368,0.33 -16.847,0.279 -25.261,-1.139 -1.052,-0.159 -2.098,-0.377 -3.141,-0.613 l -1.567,-0.348 -1.583,-0.434 c -0.524,-0.146 -1.065,-0.284 -1.572,-0.439 l -1.467,-0.495 -0.732,-0.246 c -0.197,-0.073 -0.547,-0.171 -0.81,-0.29 -0.531,-0.231 -1.072,-0.423 -1.587,-0.691 -2.086,-1.012 -4.004,-2.461 -5.54,-4.208 -1.552,-1.74 -2.704,-3.75 -3.558,-5.799 -1.703,-4.12 -2.412,-8.368 -2.875,-12.526 -0.447,-4.17 -0.618,-8.303 -0.756,-12.403 -0.251,-8.201 -0.389,-16.305 -1.143,-24.316 -0.765,-7.999 -2.138,-15.901 -4.563,-23.45 -2.413,-7.544 -5.91,-14.699 -10.467,-21.095 -4.559,-6.393 -10.141,-12.011 -16.364,-16.755 -1.223,-0.956 -2.519,-1.862 -3.833,-2.765 -0.161,0.397 -0.334,0.788 -0.522,1.173 -0.103,0.202 -0.148,0.323 -0.296,0.593 l -0.251,0.454 c -0.22,0.367 -0.476,0.798 -0.716,1.129 -0.966,1.413 -2.24,2.706 -3.727,3.682 -1.481,0.985 -3.14,1.645 -4.785,2.011 -1.651,0.381 -3.289,0.487 -4.88,0.455 -3.183,-0.083 -6.18,-0.728 -9.074,-1.558 -2.888,-0.846 -5.675,-1.907 -8.405,-3.091 -5.455,-2.375 -10.712,-5.178 -15.903,-8.187 -2.602,-1.523 -5.151,-3.008 -7.775,-4.767 -2.564,-1.729 -5.043,-3.613 -7.419,-5.652 -4.74,-4.088 -9.097,-8.795 -12.536,-14.311 -1.694,-2.769 -3.186,-5.732 -4.109,-9.008 -0.455,-1.638 -0.762,-3.359 -0.781,-5.156 -0.031,-1.786 0.29,-3.689 1.149,-5.45 0.448,-0.871 1.027,-1.686 1.716,-2.397 0.709,-0.683 1.497,-1.285 2.347,-1.726 1.695,-0.909 3.511,-1.293 5.264,-1.473 3.528,-0.308 6.912,0.24 10.163,1.052 6.525,1.622 12.631,4.353 18.637,7.311 3.009,1.52 5.909,3.07 8.908,4.817 2.955,1.787 5.745,3.793 8.444,5.951 2.692,2.165 5.282,4.492 7.715,7.048 2.433,2.558 4.69,5.364 6.509,8.661 0.894,1.656 1.683,3.454 2.086,5.499 0.254,1.263 0.344,2.666 0.15,4.075 1.123,0.795 2.241,1.587 3.365,2.381 0.119,-3.307 -0.835,-6.791 -2.309,-10.037 -2.029,-4.467 -4.917,-8.621 -8.066,-12.456 -6.364,-7.67 -13.717,-14.243 -21.102,-20.17 -7.41,-5.92 -14.952,-11.167 -22.376,-15.928 -14.87,-9.501 -29.28,-17.057 -42.575,-23.138 -17.532,-7.944 -33.157,-13.224 -46.0854,-16.441 H 29.1293 c -7.7195,0 -14,-6.282 -14,-14 V 14 c 0,-7.71992 6.2805,-14 14,-14 H 480.387 c 7.72,0 14,6.28008 14,14 v 269.816 c 0,7.718 -6.28,14 -14,14 m -41.171,-27.579 c 0,0.139 0.113,0.25 0.25,0.25 0.137,0 0.25,-0.111 0.25,-0.25 0,-0.274 -0.5,-0.274 -0.5,0 m 0.25,4.25 c 2.343,0 4.25,-1.905 4.25,-4.25 0,-2.342 -1.907,-4.25 -4.25,-4.25 -2.343,0 -4.25,1.908 -4.25,4.25 0,2.345 1.907,4.25 4.25,4.25 m 0,-10.25 c 3.309,0 6,2.692 6,6 0,3.31 -2.691,6 -6,6 -3.308,0 -6,-2.69 -6,-6 0,-3.308 2.692,-6 6,-6 m -372.1633,1.75 c -2.3441,0 -4.25,1.908 -4.25,4.25 0,2.345 1.9059,4.25 4.25,4.25 2.3426,0 4.25,-1.905 4.25,-4.25 0,-2.342 -1.9074,-4.25 -4.25,-4.25 m 0,10.25 c -3.3089,0 -6,-2.69 -6,-6 0,-3.308 2.6911,-6 6,-6 3.3078,0 6,2.692 6,6 0,3.31 -2.6922,6 -6,6 m 372.1633,6 c 6.617,0 12,-5.382 12,-12 0,-6.616 -5.383,-12 -12,-12 -6.617,0 -12,5.384 -12,12 0,6.618 5.383,12 12,12 m 0,-25.25 c 7.305,0 13.25,5.945 13.25,13.25 0,7.308 -5.945,13.25 -13.25,13.25 -7.305,0 -13.25,-5.942 -13.25,-13.25 0,-7.305 5.945,-13.25 13.25,-13.25 m -371.9133,13.25 c 0,-0.274 -0.5,-0.274 -0.5,0 0,0.139 0.1118,0.25 0.25,0.25 0.1368,0 0.25,-0.111 0.25,-0.25 m -0.25,-12 c -6.6172,0 -12,5.384 -12,12 0,4.823 2.8637,8.978 6.9746,10.883 1.5325,0.711 3.229,1.117 5.0254,1.117 1.2348,0 2.427,-0.188 3.5489,-0.536 4.8902,-1.516 8.4511,-6.082 8.4511,-11.464 0,-6.616 -5.3843,-12 -12,-12 m 6.0621,23.769 c -1.8195,0.94 -3.8777,1.481 -6.0621,1.481 -2.8156,0 -5.4222,-0.888 -7.5714,-2.39 -3.4278,-2.398 -5.6786,-6.367 -5.6786,-10.86 0,-7.305 5.9438,-13.25 13.25,-13.25 7.3059,0 13.25,5.945 13.25,13.25 0,5.122 -2.9261,9.564 -7.1879,11.769" /><text
       xml:space="preserve"
       style="font-style:normal;font-weight:normal;font-size:10px;line-height:125%;font-family:Sans;letter-spacing:0px;word-spacing:0px;fill:#000000;fill-opacity:1;stroke:none;stroke-width:0.75px;stroke-linecap:butt;stroke-linejoin:miter;stroke-opacity:1"
       x="211.65932"
       y="-50.663132"
       id="text902"
       transform="scale(1,-1)"><tspan
         sodipodi:role="line"
         id="tspan900"
         x="211.65932"
         y="-50.663132"
         style="font-size:36px;stroke-width:0.75px;-inkscape-font-specification:'sans-serif Bold';font-family:sans-serif;font-weight:bold;font-style:normal;font-stretch:normal;font-variant:normal">????</tspan></text>
</g></svg>