<?xml version="1.0" encoding="UTF-8" standalone="no"?>
<!-- Created with Inkscape (http://www.inkscape.org/) -->

<svg
   xmlns:dc="http://purl.org/dc/elements/1.1/"
   xmlns:cc="http://creativecommons.org/ns#"
   xmlns:rdf="http://www.w3.org/1999/02/22-rdf-syntax-ns#"
   xmlns:svg="http://www.w3.org/2000/svg"
   xmlns="http://www.w3.org/2000/svg"
   xmlns:sodipodi="http://sodipodi.sourceforge.net/DTD/sodipodi-0.dtd"
   xmlns:inkscape="http://www.inkscape.org/namespaces/inkscape"
   width="24mm"
   height="24mm"
   viewBox="0 0 24 24"
   version="1.1"
   id="svg4554"
   inkscape:version="0.92.2 5c3e80d, 2017-08-06"
   sodipodi:docname="phone.svg">
  <defs
     id="defs4548" />
  <sodipodi:namedview
     id="base"
     pagecolor="#ffffff"
     bordercolor="#666666"
     borderopacity="1.0"
     inkscape:pageopacity="0.0"
     inkscape:pageshadow="2"
     inkscape:zoom="5.6"
     inkscape:cx="29.041203"
     inkscape:cy="48.445269"
     inkscape:document-units="mm"
     inkscape:current-layer="layer1"
     showgrid="false"
     inkscape:window-width="1366"
     inkscape:window-height="709"
     inkscape:window-x="0"
     inkscape:window-y="0"
     inkscape:window-maximized="1" />
  <metadata
     id="metadata4551">
    <rdf:RDF>
      <cc:Work
         rdf:about="">
        <dc:format>image/svg+xml</dc:format>
        <dc:type
           rdf:resource="http://purl.org/dc/dcmitype/StillImage" />
        <dc:title></dc:title>
      </cc:Work>
    </rdf:RDF>
  </metadata>
  <g
     inkscape:label="Layer 1"
     inkscape:groupmode="layer"
     id="layer1"
     transform="translate(0,-273)">
    <g
       id="layer1-5"
       inkscape:label="Calque 1"
       transform="matrix(0.59756093,0,0,0.60583954,-1.6585569,166.72728)"
       style="fill:#ffffff">
      <g
         id="_152222920"
         style="fill:#ffffff;fill-rule:evenodd"
         transform="translate(-6.2815,166.08)">
        <path
           id="_152222248"
           d="m 24.186,22.5 c -5.4466,3.1445 2.8637,18.724 8.8237,15.283 1.0584,1.8332 4.4676,7.7381 5.526,9.5712 -2.5146,1.4519 -4.6432,2.3671 -7.5585,0.70054 -8.0946,-4.6273 -17.005,-20.054 -16.751,-29.256 0.08805,-3.196 1.971,-4.4482 4.434,-5.8702 1.0584,1.8332 4.4676,7.738 5.526,9.5712 z"
           class="fil0"
           style="fill:#ffffff"
           inkscape:connector-curvature="0" />
        <path
           id="_150519168"
           d="m 26.47,22.24 c -0.58849,0.33978 -1.3458,0.13697 -1.6856,-0.45158 l -5.2095,-9.0232 c -0.33984,-0.58862 -0.13704,-1.3459 0.45152,-1.6857 l 2.738,-1.5808 c 0.58855,-0.33984 1.346,-0.13685 1.6858,0.4517 l 5.2095,9.0231 c 0.33978,0.58849 0.13691,1.3458 -0.45158,1.6856 l -2.738,1.5808 z"
           class="fil0"
           style="fill:#ffffff"
           inkscape:connector-curvature="0" />
        <path
           id="_226148072"
           d="m 40.702,46.89 c -0.58849,0.33978 -1.3458,0.13697 -1.6856,-0.45164 l -5.2095,-9.0232 c -0.33984,-0.58855 -0.13704,-1.3459 0.45152,-1.6856 l 2.738,-1.5808 c 0.58855,-0.33978 1.346,-0.13679 1.6858,0.4517 l 5.2095,9.0231 c 0.33978,0.58855 0.13691,1.3459 -0.45158,1.6856 l -2.738,1.5808 z"
           class="fil0"
           style="fill:#ffffff"
           inkscape:connector-curvature="0" />
      </g>
    </g>
  </g>
</svg>
