<?xml version="1.0" encoding="UTF-8" standalone="no"?>
<!-- Created with Inkscape (http://www.inkscape.org/) -->

<svg
   xmlns:dc="http://purl.org/dc/elements/1.1/"
   xmlns:cc="http://creativecommons.org/ns#"
   xmlns:rdf="http://www.w3.org/1999/02/22-rdf-syntax-ns#"
   xmlns:svg="http://www.w3.org/2000/svg"
   xmlns="http://www.w3.org/2000/svg"
   xmlns:sodipodi="http://sodipodi.sourceforge.net/DTD/sodipodi-0.dtd"
   xmlns:inkscape="http://www.inkscape.org/namespaces/inkscape"
   version="1.1"
   id="svg2"
   xml:space="preserve"
   width="509.33334"
   height="240"
   viewBox="0 0 509.33334 240"
   sodipodi:docname="traceLogo_Bianco.svg"
   inkscape:version="0.92.2 5c3e80d, 2017-08-06"><metadata
     id="metadata8"><rdf:RDF><cc:Work
         rdf:about=""><dc:format>image/svg+xml</dc:format><dc:type
           rdf:resource="http://purl.org/dc/dcmitype/StillImage" /><dc:title></dc:title></cc:Work></rdf:RDF></metadata><defs
     id="defs6" /><sodipodi:namedview
     pagecolor="#ffffff"
     bordercolor="#666666"
     borderopacity="1"
     objecttolerance="10"
     gridtolerance="10"
     guidetolerance="10"
     inkscape:pageopacity="0"
     inkscape:pageshadow="2"
     inkscape:window-width="1366"
     inkscape:window-height="709"
     id="namedview4"
     showgrid="false"
     inkscape:zoom="2.591623"
     inkscape:cx="354.22882"
     inkscape:cy="125.29162"
     inkscape:window-x="0"
     inkscape:window-y="0"
     inkscape:window-maximized="1"
     inkscape:current-layer="g10" /><g
     id="g10"
     inkscape:groupmode="layer"
     inkscape:label="ink_ext_XXXXXX"
     transform="matrix(1.3333333,0,0,-1.3333333,0,240)"><g
       id="g12"
       transform="scale(0.1)"
       style="fill:#ffffff"><path
         d="m 3288,1622.5 c -50,-3.07 -60.68,-7.74 -87,-38 -16.52,-19 -32.47,-34.5 -35.5,-34.5 -3.07,0 -5.5,13.5 -5.5,30.5 v 30.5 l -53,-6.52 c -77,-9.48 -77,-9.48 -77,-59.48 0,-38 3.11,-45 20,-45 19.6,0 20,-7 20,-350 0,-290 2.32,-350 13.5,-350 7.29,0 28,2.762 45,6 l 31.5,6 v 304.5 304.5 l 46.5,49.5 c 25.36,27 50.36,49.5 55,49.5 4.68,0 8.5,-152.5 8.5,-339.5 V 841 l -55,-24.977 c -99,-44.96 -208.94,-78.199 -280,-84.66 l -70,-6.363 -3,-66 -3,-66 -254.5,-43.5 c -165,-28.203 -254.5,-47.543 -254.5,-55 0,-6.191 -9.37,-23.5 -20.31,-37.5 -24.22,-31 -24.72,-36.672 -2.69,-30.801 9.88,2.637 133,24.192 273,47.801 l 255,43 5,-176 5,-176 56,2.559 c 79.95,3.656 203,41.879 375,116.484 169,73.305 235.12,94.437 326,104.195 l 63,6.762 2.5,278.5 2.5,278.5 -65,-3.5 -65,-3.5 v 342.5 342.5 h -65 c -60,0 -67.04,-2.31 -91.5,-30 -15.02,-17 -30.18,-30 -35,-30 -4.82,0 -8.5,13 -8.5,30 0,17 -3.25,29.13 -7.5,28 -4.08,-1.09 -33.5,-3.6 -64.5,-5.5 z m 179.5,-394 L 3465,917 3412.5,899 3360,881 v 277 277 l 47.5,52.5 c 26.24,29 50.86,52.5 55,52.5 4.12,0 6.37,-140.5 5,-311.5 z M 3660,672 V 413 l -47,-6.574 C 3544.27,396.813 3444,365.039 3260,294.563 3096,231.75 2957.45,190 2913,190 h -23 l 2.5,256.5 2.5,256.5 85,17.5 c 47.14,9.703 134,36.008 195,59.043 229,86.488 331.83,122.125 390,135.164 105.07,23.551 95,49.293 95,-242.707"
         style="fill:#ffffff;fill-opacity:1;fill-rule:nonzero;stroke:none"
         id="path14"
         inkscape:connector-curvature="0" /><path
         d="m 2790,1559.62 c -25,-4.79 -59.45,-11.29 -77.5,-14.62 l -32.5,-6 v -99.5 -99.5 h 29 c 53.49,0 61,8 61,65 0,57 7.26,65 59,65 42.5,0 51,-17 51,-102 v -77 l -47,-6.53 c -60,-8.33 -61.83,-9.44 -111.73,-67.47 L 2680,1169 V 953.5 738 l 22.5,5.5 c 12.2,2.98 47,8.707 76,12.5 39,5.102 60,14.047 77.5,33 19.39,21 24,22.539 24,8 0,-18.73 26,-21.602 93,-10.262 36.57,6.192 37,6.762 37,49.762 0,37 -2.99,43.5 -20,43.5 -19.55,0 -20,7 -20,308 v 308 l -38,37.09 c -40.73,39.77 -57,42.8 -142,26.53 z M 2880,1067 V 934 l -36,-42 c -19.71,-23 -44.59,-42 -55,-42 -17.91,0 -19,8.5 -19,148.5 0,141 1.14,149.54 22.5,169 12.6,11.48 33.5,22.48 47.5,25 14,2.52 28.3,5.16 32.5,6 4.12,0.82 7.5,-58.5 7.5,-131.5"
         style="fill:#ffffff;fill-opacity:1;fill-rule:nonzero;stroke:none"
         id="path16"
         inkscape:connector-curvature="0" /><path
         d="m 2554.5,1516 c -50,-9.92 -66.84,-18.86 -97,-51.5 l -36.5,-39.5 -0.5,31.5 -0.5,31.5 -43,-9.26 c -92,-19.82 -87,-16.1 -87,-64.74 0,-41 2.18,-45.46 20,-41 19.72,4.93 20,0 20,-349 0,-195 3.37,-353.773 7.5,-353.5 4.09,0.273 32.5,6.184 62.5,13 l 55,12.5 3,47 c 2.68,42 0.82,47 -17.5,47 -20.18,0 -20.5,4 -20.5,254 v 254 l 52.5,63 52.5,63 5,-60 5,-60 42.5,8.5 42.5,8.5 v 104.5 c 0,57 -1.14,104.05 -2.5,103.5 -1.36,-0.55 -30,-6.45 -63,-13"
         style="fill:#ffffff;fill-opacity:1;fill-rule:nonzero;stroke:none"
         id="path18"
         inkscape:connector-curvature="0" /><path
         d="m 2090,1416 -135,-32 -2.5,-351 -2.5,-351 45,-37.195 c 46.14,-38.137 64,-40.547 138,-18.633 27.53,8.152 25,-98.172 -3,-126.172 -36.98,-36.98 -80,-23 -80,26 0,37.746 -5,39.602 -63,23.359 -35.72,-10.004 -37,-11.859 -37,-53.859 0,-39.199 4.5,-47.16 45.5,-80.5 l 45.5,-37 57,10.961 c 58.72,11.293 84.66,32.039 132.57,106.039 18.48,28.539 19.43,52.5 19.43,492.5 0,364 -2.66,462.29 -12.5,461.5 -6.85,-0.55 -73.5,-15.46 -147.5,-33 z m 60,-390.5 V 721 l -35,-6.648 C 2049.6,701.922 2050,700 2050,1026 v 293 l 27.5,4 c 15,2.18 37.73,4.68 50,5.5 l 22.5,1.5 v -304.5"
         style="fill:#ffffff;fill-opacity:1;fill-rule:nonzero;stroke:none"
         id="path20"
         inkscape:connector-curvature="0" /><path
         d="m 1420,1391.06 c -21.58,-6.1 -25.41,-13.56 -28,-54.56 -2.97,-47 -2.71,-47.43 25,-41.04 63,14.54 63,14.54 63,60.54 0,47.67 -5,50.59 -60,35.06"
         style="fill:#ffffff;fill-opacity:1;fill-rule:nonzero;stroke:none"
         id="path22"
         inkscape:connector-curvature="0" /><path
         d="m 1220,1376.5 -55,-11.5 -3,-46.5 c -2.77,-43 -1.46,-46.12 17.5,-41.5 17.08,4.17 20.5,0 20.5,-25 0,-33.27 1,-32.84 -123,-53.3 L 1000,1186 V 787 388 l 47.5,6.5 c 26.02,3.563 99.5,16.449 162.5,28.5 l 115,22 3,47.5 c 2.65,42 0.63,47.5 -17.5,47.5 -20.36,0 -20.5,3 -20.5,425 0,234 -3.37,424.55 -7.5,424 -4.09,-0.55 -32.5,-6.23 -62.5,-12.5 z m -20,-555 V 513 l -38,-6.562 C 1083.27,492.836 1090,465 1090,804 v 304 l 47.5,10 c 26,5.47 50.89,10.45 55,11 4.13,0.55 7.5,-137.5 7.5,-307.5"
         style="fill:#ffffff;fill-opacity:1;fill-rule:nonzero;stroke:none"
         id="path24"
         inkscape:connector-curvature="0" /><path
         d="m 1710,1329 c -69,-16.01 -135.08,-31.24 -147.5,-34 -19,-4.22 -22.5,-12 -22.5,-50 0,-38 3.11,-45 20,-45 19.6,0 20,-7 20,-350 V 500 l 22.5,5 c 12.3,2.734 83,18.594 156,35 73,16.406 137.58,32.492 142.5,35.5 5.01,3.063 9,23 9,45 0,33 -3.29,39.5 -20,39.5 -19.6,0 -20,7 -20,350 0,327 -1.15,349.93 -17.5,349 -9.66,-0.55 -73.5,-13.99 -142.5,-30 z M 1777.5,942.5 1775,635 1722.5,623.5 1670,612 V 919.5 1227 l 42.5,10.5 c 23,5.68 48.23,10.96 55,11.5 9.88,0.79 11.98,-63.5 10,-306.5"
         style="fill:#ffffff;fill-opacity:1;fill-rule:nonzero;stroke:none"
         id="path26"
         inkscape:connector-curvature="0" /><path
         d="M 413,1272.5 C 363.328,1269.16 358.066,1266 295.5,1202 L 230,1135 V 727.5 320 h 45 45 v 244 244 l 55,3.5 55,3.5 V 572 c 0,-185 2.984,-243.953 12.5,-247 6.816,-2.184 37.5,-0.816 67.5,3 l 55,7 3,42.5 c 2.613,37 0.348,42.5 -17.5,42.5 -20.355,0 -20.5,3 -20.5,430 v 430 l -32.5,-2 c -18.125,-1.12 -55.5,-3.55 -84.5,-5.5 z M 430,1045 V 910 h -39 c -21,0 -46.383,-2.77 -55,-6 -13.988,-5.246 -16,6.5 -16,93.5 v 99.5 l 38.824,42 c 64.934,70.25 71.176,62 71.176,-94"
         style="fill:#ffffff;fill-opacity:1;fill-rule:nonzero;stroke:none"
         id="path28"
         inkscape:connector-curvature="0" /><path
         d="m 1435,1268 c -88,-17.6 -85,-15.37 -85,-63 0,-38 3.11,-45 20,-45 19.63,0 20,-6.5 20,-350.5 V 459 l 38,6.992 C 1515,482 1515,482 1518.12,534 c 2.64,44 1.17,47.457 -17.62,41.5 -20.36,-6.453 -20.52,-4 -23,347 l -2.5,353.5 -40,-8"
         style="fill:#ffffff;fill-opacity:1;fill-rule:nonzero;stroke:none"
         id="path30"
         inkscape:connector-curvature="0" /><path
         d="M 847.5,1163 820,1159 V 539 L 770,487 720,435 V 787.5 1140 h -49 c -73,0 -81,-5.53 -81,-56 0,-32 4.09,-44 15,-44 13.059,0 15,-45.5 15,-351.5 V 337 l 67.5,6.5 c 61,5.875 70.582,9.965 99.5,42.5 l 32,36 3,-28.5 c 2.773,-26.363 6,-28.309 43,-25.941 81,5.183 85,7.886 85,57.441 0,33 -4,45 -15,45 -13.027,0 -15,46 -15,350 v 350 l -22.5,-1.5 c -12.273,-0.82 -35,-3.32 -50,-5.5"
         style="fill:#ffffff;fill-opacity:1;fill-rule:nonzero;stroke:none"
         id="path32"
         inkscape:connector-curvature="0" /><path
         d="M 1735,399.195 C 1399,336.012 308.473,160 253,160 c -20.125,0 -23,-5 -23,-40 0,-22 2.699,-40 6,-40 55,0 1651.09,263.559 1662,274.441 3.12,3.114 -57,66.829 -61,64.649 -1.1,-0.598 -47,-9.551 -102,-19.895"
         style="fill:#ffffff;fill-opacity:1;fill-rule:nonzero;stroke:none"
         id="path34"
         inkscape:connector-curvature="0" /><path
         d="M 3332,783.492 C 3317,777.395 3315.28,740 3330,740 c 6.27,0 10,-60 10,-161 0,-149 1.3,-160.516 17.5,-154.5 9.8,3.641 34,11.781 55,18.5 l 37.5,12 V 612.5 770 l -35,-14.5 c -34,-14.086 -35,-13.785 -35,10.5 0,23.895 -17,30.09 -48,17.492 z M 3410,596 c 0,-92 -2.89,-115.062 -15,-119.5 -12.74,-4.672 -15,11.5 -15,107.5 0,62 3.16,116.16 7,120 18.43,18.434 23,-3 23,-108"
         style="fill:#ffffff;fill-opacity:1;fill-rule:nonzero;stroke:none"
         id="path36"
         inkscape:connector-curvature="0" /><path
         d="M 3117,689.082 C 3098,678 3092.98,650 3110,650 c 6.24,0 10,-62 10,-165 V 320 l 25.5,12 c 21.74,10.23 24.69,16.5 20,42.5 -3.03,16.805 -5.93,96.5 -6.45,177.5 -1,153 -3.09,159.813 -42.05,137.082"
         style="fill:#ffffff;fill-opacity:1;fill-rule:nonzero;stroke:none"
         id="path38"
         inkscape:connector-curvature="0" /><path
         d="m 3222,674.777 c -28.53,-12.285 -32,-18.277 -32,-55.277 0,-34 2.89,-40.414 16,-35.5 9,3.375 17.75,6 20,6 2.17,0 4,11 4,24 0,13 6.88,26.52 15,29.5 11.47,4.207 15,-2.5 15,-28.5 0,-25 -5.03,-35.605 -19,-40.07 C 3202.22,562.543 3189.11,525 3192.14,435 l 2.86,-85 40,19 c 22,10.449 48.1,21.699 58,25 22,7.332 35.43,38.387 19,43.941 -8.34,2.821 -12,40.059 -12,122.059 0,98 -2.71,119 -16,123.895 -20.9,7.699 -24,7.246 -62,-9.118 z M 3260,486 c 0,-36 -5,-58 -15,-66 -13.11,-10.488 -15,-4.5 -15,47.5 0,33 3.12,62.617 7,66.5 16.2,16.195 23,2 23,-48"
         style="fill:#ffffff;fill-opacity:1;fill-rule:nonzero;stroke:none"
         id="path40"
         inkscape:connector-curvature="0" /></g></g></svg>