<?xml version="1.0" encoding="UTF-8" standalone="no"?>
<!-- Created with Inkscape (http://www.inkscape.org/) -->

<svg
   xmlns:dc="http://purl.org/dc/elements/1.1/"
   xmlns:cc="http://creativecommons.org/ns#"
   xmlns:rdf="http://www.w3.org/1999/02/22-rdf-syntax-ns#"
   xmlns:svg="http://www.w3.org/2000/svg"
   xmlns="http://www.w3.org/2000/svg"
   xmlns:sodipodi="http://sodipodi.sourceforge.net/DTD/sodipodi-0.dtd"
   xmlns:inkscape="http://www.inkscape.org/namespaces/inkscape"
   version="1.1"
   id="svg834"
   xml:space="preserve"
   width="482.66666"
   height="248"
   viewBox="0 0 482.66666 248"
   sodipodi:docname="logotrace.svg"
   inkscape:version="0.92.2 5c3e80d, 2017-08-06"><metadata
     id="metadata840"><rdf:RDF><cc:Work
         rdf:about=""><dc:format>image/svg+xml</dc:format><dc:type
           rdf:resource="http://purl.org/dc/dcmitype/StillImage" /><dc:title></dc:title></cc:Work></rdf:RDF></metadata><defs
     id="defs838" /><sodipodi:namedview
     pagecolor="#ffffff"
     bordercolor="#666666"
     borderopacity="1"
     objecttolerance="10"
     gridtolerance="10"
     guidetolerance="10"
     inkscape:pageopacity="0"
     inkscape:pageshadow="2"
     inkscape:window-width="1366"
     inkscape:window-height="709"
     id="namedview836"
     showgrid="false"
     inkscape:zoom="3.3024863"
     inkscape:cx="120.21246"
     inkscape:cy="124"
     inkscape:window-x="0"
     inkscape:window-y="0"
     inkscape:window-maximized="1"
     inkscape:current-layer="g842" /><g
     id="g842"
     inkscape:groupmode="layer"
     inkscape:label="ink_ext_XXXXXX"
     transform="matrix(1.3333333,0,0,-1.3333333,0,248)"><g
       id="g844"
       transform="scale(0.1)"><path
         d="m 3278,1595.79 c -45,-44.01 -54.44,-45.06 -51.92,-5.79 1.74,27.19 -1.08,30 -30.08,30 -52,0 -101.27,-18.25 -126.92,-47 -13.38,-15 -16.3,-21.22 -6.58,-14 12,8.91 17.5,9.54 17.5,2 0,-6 -4.55,-11.58 -10,-12.27 -41,-5.22 -44.72,-3.06 -41.84,24.27 2.7,25.68 0.84,27 -38.16,27 -60,0 -80,-14 -80,-56 0,-28 3.5,-34.4 17.5,-32 16.36,2.8 17.66,-20 20,-350 l 2.5,-353 37.5,3 37.5,3 2.5,305 c 1.38,168 5.42,311.74 9,320 3.47,8 5.8,18.73 5,23 -0.78,4.18 4,4.65 10,1 8.12,-4.94 9.59,-2 5,10 -4.21,11 -2.62,14.71 4.5,10.5 6,-3.55 26,8.05 44,25.5 18,17.45 34.59,28.14 36.5,23.5 1.92,-4.67 2.15,-164.5 0.5,-354.5 l -3,-346 -32,-16.621 c -46.73,-24.277 3,-10.277 68,19.141 78,35.296 243.85,84.46 308,91.296 l 58,6.184 -3,-266.5 c -1.66,-147 0.36,-266.5 4.5,-266.5 4.13,0 7.5,124.5 7.5,276.5 V 953 l -47.5,-6 c -26,-3.285 -58.14,-8.262 -71,-11 -19,-4.043 -21.39,-2.512 -12.5,8 7.64,9.031 10.24,115 8.5,347 l -2.5,334 -55.5,3 c -52,2.81 -57.77,0.78 -91.5,-32.21 z M 3341,1259 c 0.55,-153 1.45,-293 2,-310 0.91,-28.281 -4,-33.016 -56,-54 l -57,-23 -1,256.5 c -0.55,141 -1.68,270.01 -2.5,286.5 -1.14,22.7 7.5,38.55 35.5,65.15 36,34.2 50.72,58.91 26,43.64 -6,-3.7 -8.5,-2.7 -5.5,2.21 2.96,4.85 17.5,9.69 31.5,10.5 l 26,1.5 1,-279"
         style="fill:#000000;fill-opacity:1;fill-rule:nonzero;stroke:none"
         id="path846"
         inkscape:connector-curvature="0" /><path
         d="m 2647.5,1552 -87.5,-16 v -99 c 0,-98 0.23,-98.94 22.5,-93 12,3.2 30.67,6 40,6 14.54,0 17.5,10 17.5,59 v 59 l 41,7 c 34,5.8 44.5,3.5 61.5,-13.5 17.41,-17.41 20.2,-31.5 18.5,-93.5 -1.1,-40 -6.97,-75.94 -13,-79.5 -5.96,-3.52 -33,-9.48 -59,-13 -41,-5.55 -52.81,-12.62 -81,-48.5 -18.07,-23 -36.39,-43.58 -40.5,-45.5 -4.12,-1.92 -7.5,-100.5 -7.5,-218.5 V 748 l 42,6.773 c 80,12.903 117.29,26.114 127.68,45.227 5.67,10.449 19.32,18.324 30.32,17.5 13,-0.977 16.5,-5 10,-11.5 -19.14,-19.137 -9,-26.699 28,-20.887 83,13.043 82,12.375 82,54.887 0,33 -3.5,40 -20,40 -19.46,0 -20.07,8.5 -22.5,312.5 -2.32,290 -3.76,312.39 -20,311 -10,-0.86 -15.39,1.93 -12.58,6.5 4.73,7.68 -55.92,62.13 -65.92,59.18 -2.2,-0.65 -43.5,-8.4 -91.5,-17.18 z m 112,-485 -0.5,-132 -37,-42.5 c -20.02,-23 -47.32,-44.566 -59.5,-47 L 2640,841 v 153.5 c 0,132 2.5,156.58 17.88,175.5 16.25,20 77.91,41.76 94.12,33.22 4.43,-2.33 7.78,-63.22 7.5,-136.22"
         style="fill:#000000;fill-opacity:1;fill-rule:nonzero;stroke:none"
         id="path848"
         inkscape:connector-curvature="0" /><path
         d="m 2407,1507.89 c -32,-6.59 -51.59,-16.89 -58.77,-30.89 -13.33,-26 -43.91,-57 -56.23,-57 -4.86,0 -6.7,14.5 -4,31.5 4.6,29 3.09,31.02 -19,25.5 -13.44,-3.36 -40.5,-8.86 -61.5,-12.5 -35.58,-6.17 -37.5,-8.5 -37.5,-45.5 0,-32 3.59,-39 20,-39 19.6,0 20,-7 20,-351 V 678 l 36,6.602 c 73,13.382 84,21.421 84,61.398 0,31 -2.78,35.305 -20,31 -19.67,-4.918 -20,-0.5 -20,266.5 V 1315 l 54.5,60 54.5,60 0.5,-62 0.5,-62 33,5.5 c 58.15,9.69 57,7.5 57,108.5 0,106 4.98,101.03 -83,82.89"
         style="fill:#000000;fill-opacity:1;fill-rule:nonzero;stroke:none"
         id="path850"
         inkscape:connector-curvature="0" /><path
         d="m 1975,1414 c -55,-13.2 -110.12,-26.25 -122.5,-29 l -22.5,-5 v -347.5 c 0,-191 3.38,-352.23 7.5,-358 4.23,-5.914 23,-22.07 43,-37 34.8,-25.98 36.5,-26.234 86.5,-13 28,7.41 55.06,10.543 60,6.945 9,-6.55 11.86,-129.64 3,-128.98 -19,1.418 -30.24,-3.641 -25.48,-11.465 3.03,-4.973 -11.52,-11.062 -32.52,-13.605 -42,-5.09 -61.22,10.671 -61.71,50.605 -0.26,21.332 -3.79,23.332 -31.79,18 -17,-3.238 -35.41,-6 -40,-6 -4.74,0 -8.5,-19 -8.5,-43 0,-32 5.76,-47.734 22.5,-61.5 12,-9.867 32.07,-26.898 43,-36.5 18.95,-16.641 24.5,-16.949 73.5,-4.094 60,15.746 84.35,32.321 76.54,52.094 -3.17,8 -1.68,11.645 3.46,8.5 4.94,-3.016 20.74,8.5 35,25.5 l 26,31 v 464 c 0,436 -1.05,463.94 -17.5,463 -9.62,-0.55 -62.5,-11.8 -117.5,-25 z m 55,-384 c 0,-324 0.93,-316.848 -42,-323.871 -7,-1.149 -18.08,-5.129 -24,-8.629 -5.87,-3.465 -20.8,4 -32,16 -20.31,21.762 -21.03,32 -22,312 l -1,289.5 38,11.5 c 21,6.36 48.07,11.95 60.5,12.5 l 22.5,1 v -310"
         style="fill:#000000;fill-opacity:1;fill-rule:nonzero;stroke:none"
         id="path852"
         inkscape:connector-curvature="0" /><path
         d="m 1297,1387.46 c -35.15,-8.99 -37,-11.46 -37,-49.46 v -40 l 37,6.99 c 51,9.63 53,11.52 53,50.01 0,41.66 -5,44.72 -53,32.46"
         style="fill:#000000;fill-opacity:1;fill-rule:nonzero;stroke:none"
         id="path854"
         inkscape:connector-curvature="0" /><path
         d="m 1077.5,1368 c -35.12,-9.37 -37.5,-12.5 -37.5,-49.5 0,-32 3.32,-38.93 17.5,-36.5 14.5,2.48 16.95,-3 14.28,-32 -3.87,-42 -2.83,-40.89 -42.78,-45.47 -83,-9.52 -124.82,-17.19 -141,-25.87 -16.684,-8.95 -18,-38.16 -18,-399.16 0,-214 1.801,-389.5 4,-389.5 4.922,0 189,34.578 274,51.469 l 53,10.531 -2.5,39 c -2.05,32 -6.18,39 -23,39 -20.4,0 -20.48,2 -17.5,425 l 3,425 -23,-1 c -12.88,-0.56 -39.5,-5.4 -60.5,-11 z M 1070,836 c 0,-162 2.47,-300.734 5.5,-309 4.21,-11.469 -6.5,-17.59 -45.5,-26 -28,-6.039 -55.285,-11 -60.5,-11 -5.957,0 -8.566,116.5 -7,312.5 l 2.5,312.5 30,6.5 c 17,3.68 39.75,6.93 52.5,7.5 l 22.5,1 V 836"
         style="fill:#000000;fill-opacity:1;fill-rule:nonzero;stroke:none"
         id="path856"
         inkscape:connector-curvature="0" /><path
         d="m 1605,1329.2 c -195,-46.8 -179.74,-39.95 -183.08,-82.2 -2.21,-28 0.85,-37 12.58,-37 13.73,0 15.5,-40 15.5,-350 0,-204 3.75,-350 9,-350 4.96,0 55.5,11.23 112.5,25 57,13.77 120.57,27.156 141.5,29.801 52,6.566 57,11.496 57,56.199 0,28 -4.23,39 -15,39 -13.02,0 -15.13,42.5 -16,322.5 -0.55,177 -0.1,334.91 1,350 1.09,15 -1.86,27.05 -6.5,26.5 -4.68,-0.55 -62.5,-13.96 -128.5,-29.8 z M 1650,944 c -0.55,-169 -1.9,-308.902 -3,-310 -1.09,-1.09 -30.5,-8.613 -64.5,-16.5 -48,-11.137 -60.06,-11.602 -52,-2 6.82,8.113 10.15,119 9.5,316 l -1,303.5 53,10.5 c 29,5.75 54.36,9.59 56,8.5 1.64,-1.1 2.55,-141 2,-310"
         style="fill:#000000;fill-opacity:1;fill-rule:nonzero;stroke:none"
         id="path858"
         inkscape:connector-curvature="0" /><path
         d="m 194,1223.5 c -51.0179,-56.9305 0,0 -52,-70.2 C 111.35508,1101.5797 97.728984,1101.5797 102.563,726 L 105,325 l 37.5,-3 37.5,-3 2.5,248 2.5,248 62.5,3 62.5,3 V 575 329 l 57.5,3 57.5,3 3,42.5 c 2.613,37 0.348,42.5 -17.5,42.5 -20.355,0 -20.5,3 -20.5,425 v 425 h -76 -76 z m 119,-177 -2,-141.5 -65.5,-3 -65.5,-3 v 98.5 98.5 l 44.5,44.5 c 25,25 54.578,45.16 67.5,46 l 23,1.5 -2,-141.5"
         style="fill:#000000;fill-opacity:1;fill-rule:nonzero;stroke:none"
         id="path860"
         inkscape:connector-curvature="0"
         sodipodi:nodetypes="cccccccccccccccssccccccccccsccc" /><path
         d="m 1316,1263 c -3.71,-3.71 -15,-7.51 -24,-8.07 -62,-3.93 -62,-3.93 -62,-34.93 0,-17 5.42,-30 12.5,-30 8.93,0 8.5,-2.57 -1.5,-9 -11.53,-7.41 -11,-9.62 3,-12.5 15.63,-3.22 16.96,-31.5 16.5,-350.5 l -0.5,-347 38,4.434 c 79,9.214 82,11.25 82,55.566 0,31 -3.49,39.324 -15.5,37 -13.72,-2.656 -15.44,37.5 -15,349.5 0.41,290 -1.89,352.5 -13,352.5 -7,0 -16.87,-3.37 -20.5,-7"
         style="fill:#000000;fill-opacity:1;fill-rule:nonzero;stroke:none"
         id="path862"
         inkscape:connector-curvature="0" /><path
         d="m 706.5,1153 c -3.57,-3.29 -6.727,-144 -7,-312 L 699,535 659.5,495 c -21.727,-22 -37.926,-44.5 -36,-50 1.938,-5.531 -7,-10.672 -20,-11.5 -13,-0.828 -23.5,3.637 -23.5,10 0,6.316 0,166.5 0,355.5 v 344 l -31,-6.5 c -17,-3.56 -44.098,-6.5 -60,-6.5 -26.824,0 -29,-3 -29,-40 0,-33 3.5,-40 20,-40 19.633,0 20,-6.5 20,-353.5 V 343 l 57.5,4.5 c 53,4.148 60.824,7.984 100,49 l 42.5,44.5 1,-28 c 0.535,-15 0.559,-31.25 0.047,-35 -1.242,-9.105 30.953,-9.547 81.953,-1.117 35.559,5.879 37,7.617 37,44.617 0,32 -3.375,38.5 -20,38.5 -19.629,0 -20,6.5 -20,348.5 V 1157 l -33.5,1 c -18,0.54 -36.508,-1.78 -40,-5"
         style="fill:#000000;fill-opacity:1;fill-rule:nonzero;stroke:none"
         id="path864"
         inkscape:connector-curvature="0" /><path
         d="m 3040,790 c -8,-5.332 -10.33,-10 -5,-10 5.33,0 17,4.668 25,10 8,5.332 10.33,10 5,10 -5.33,0 -17,-4.668 -25,-10"
         style="fill:#000000;fill-opacity:1;fill-rule:nonzero;stroke:none"
         id="path866"
         inkscape:connector-curvature="0" /><path
         d="m 3215,782.43 c -6.33,-4.703 -8.16,-72.43 -5,-184.43 l 5,-177 52.5,24.5 52.5,24.5 v 146 c 0,129 -1.86,145.277 -16,139.801 -53,-20.539 -64,-19.129 -64,8.199 0,27 -6.76,31.98 -25,18.43 z M 3290.5,603 C 3289.3,509 3285.75,482.516 3273,472.781 3240.19,447.723 3234.61,466 3237.84,588 c 2.95,111 4.64,119.707 25.16,129.5 12,5.727 23.59,8.91 25.5,7 1.93,-1.93 2.83,-56.5 2,-121.5"
         style="fill:#000000;fill-opacity:1;fill-rule:nonzero;stroke:none"
         id="path868"
         inkscape:connector-curvature="0" /><path
         d="m 2828,723 c 7,-2.691 15.77,-2.23 19,1 3.16,3.156 -3,5.527 -13,5 -12,-0.633 -14.21,-2.844 -6,-6"
         style="fill:#000000;fill-opacity:1;fill-rule:nonzero;stroke:none"
         id="path870"
         inkscape:connector-curvature="0" /><path
         d="m 2738,653.5 -3,-66.5 -245,-41 c -135,-22.594 -250.84,-44.816 -258,-49.5 -6.74,-4.406 -11.55,-15 -10,-22 1.65,-7.426 -6,-20.477 -17,-29 -19.2,-14.879 -19,-15.301 5,-10.5 13.78,2.754 132.5,23.18 264.5,45.5 132,22.32 244.21,41.398 250,42.5 6.81,1.297 12.43,-56 16,-163 5.22,-156.652 5.6,-152 7.5,92 l 2,257 32.5,4 c 32.5,4 32.5,4 -4.5,5.5 l -37,1.5 -3,-66.5"
         style="fill:#000000;fill-opacity:1;fill-rule:nonzero;stroke:none"
         id="path872"
         inkscape:connector-curvature="0" /><path
         d="m 2995.5,686.5 c -11,-8.027 -15.46,-18.363 -11,-25.5 4.11,-6.578 6.82,-84.5 6,-172.5 -1.35,-144 0.2,-159.883 15,-154.5 9,3.273 20.59,6 25.5,6 12.86,0 12,27.332 -1,31.668 -6.09,2.031 -10.2,66.832 -10.5,165.832 -0.27,89 -1.63,162.5 -3,162.5 -1.35,0 -11,-6.203 -21,-13.5"
         style="fill:#000000;fill-opacity:1;fill-rule:nonzero;stroke:none"
         id="path874"
         inkscape:connector-curvature="0" /><path
         d="m 3130,679 c 0,-7 -2.5,-9.707 -6,-6.5 -3.31,3.035 -19,1.016 -35,-4.5 -24.86,-8.57 -29,-15 -29,-45 0,-40 21.06,-41.391 30.32,-2 7.06,30 46.14,39.051 51.84,12 6.52,-31 -2.16,-48.508 -33.16,-66.844 -16,-9.465 -26.76,-20.965 -24,-25.656 2.67,-4.535 -2,-11.18 -10,-14.242 -20,-7.656 -21.91,-166.461 -2,-165.973 19,0.465 47.71,25.758 39.41,34.715 -4.04,4.363 2.59,5.605 14.59,2.73 42.76,-10.234 48.51,8.27 45.13,145.27 -2.81,114 -5.13,128.074 -22.63,137.5 -14,7.539 -19.5,7.117 -19.5,-1.5 z m 10,-187.5 c 0,-49 -4.06,-62.234 -25,-81.5 l -25,-23 v 70 c 0,68 9.95,93 37,93 9.11,0 13,-17.5 13,-58.5"
         style="fill:#000000;fill-opacity:1;fill-rule:nonzero;stroke:none"
         id="path876"
         inkscape:connector-curvature="0" /><path
         d="M 1665,404.922 C 1659.48,402.758 1507,375.887 1325,345 1143,314.113 988.273,286.309 980,283 972,279.801 961.035,277.934 956.5,279 951.828,280.098 866,267.426 766,250.871 557,216.273 279.523,173.738 200,164.109 119,154.301 100,144.969 100,115 c 0,-18 5.32,-25 19,-25 18.332,0 413,58.707 666,99.066 173,27.598 701.34,118.184 830,142.309 61,11.438 118.02,20.402 128,20.125 16.14,-0.449 15.64,2.5 -4.79,28.5 C 1717,407 1692,415.512 1665,404.922"
         style="fill:#000000;fill-opacity:1;fill-rule:nonzero;stroke:none"
         id="path878"
         inkscape:connector-curvature="0" /><path
         d="m 3475,399.84 c -28,-7.317 -28.33,-7.906 -5,-8.84 14,-0.559 31.6,3.344 40,8.867 17.05,11.219 8,11.211 -35,-0.027"
         style="fill:#000000;fill-opacity:1;fill-rule:nonzero;stroke:none"
         id="path880"
         inkscape:connector-curvature="0" /><path
         d="m 3290,350 c -8,-5.332 -10.33,-10 -5,-10 5.33,0 17,4.668 25,10 8,5.332 10.33,10 5,10 -5.33,0 -17,-4.668 -25,-10"
         style="fill:#000000;fill-opacity:1;fill-rule:nonzero;stroke:none"
         id="path882"
         inkscape:connector-curvature="0" /><path
         d="m 3105,278.645 c -133,-52.735 -254.04,-87.688 -315,-90.961 -28,-1.504 -50,-6.645 -50,-11.684 0,-14.484 130,1.746 201,25.094 61,20.058 269.21,106.121 278,114.906 9.62,9.621 -20,-0.086 -114,-37.355"
         style="fill:#000000;fill-opacity:1;fill-rule:nonzero;stroke:none"
         id="path884"
         inkscape:connector-curvature="0" /></g></g></svg>