<?xml version="1.0" encoding="UTF-8" standalone="no"?>
<!-- Created with Inkscape (http://www.inkscape.org/) -->

<svg
   xmlns:dc="http://purl.org/dc/elements/1.1/"
   xmlns:cc="http://creativecommons.org/ns#"
   xmlns:rdf="http://www.w3.org/1999/02/22-rdf-syntax-ns#"
   xmlns:svg="http://www.w3.org/2000/svg"
   xmlns="http://www.w3.org/2000/svg"
   xmlns:xlink="http://www.w3.org/1999/xlink"
   xmlns:sodipodi="http://sodipodi.sourceforge.net/DTD/sodipodi-0.dtd"
   xmlns:inkscape="http://www.inkscape.org/namespaces/inkscape"
   width="128"
   height="128"
   viewBox="0 0 33.866666 33.866666"
   version="1.1"
   id="svg4529"
   inkscape:version="0.92.2 5c3e80d, 2017-08-06"
   sodipodi:docname="map.svg">
  <defs
     id="defs4523">
    <radialGradient
       cx="25.712"
       cy="48.735001"
       r="21.856001"
       id="D"
       xlink:href="#C"
       gradientUnits="userSpaceOnUse"
       gradientTransform="matrix(0.28956436,0,0,0.02362886,51.821252,203.24803)" />
    <linearGradient
       id="C">
      <stop
         id="T"
         stop-color="#2e3436" />
      <stop
         id="U"
         offset="1"
         stop-color="#2e3436"
         stop-opacity="0" />
    </linearGradient>
    <radialGradient
       cx="13.559"
       cy="12.06"
       r="16.219"
       id="E"
       xlink:href="#B"
       gradientUnits="userSpaceOnUse"
       gradientTransform="matrix(0.16336378,0.67746533,-1.0024184,0.24172315,65.978444,182.59769)" />
    <linearGradient
       id="B">
      <stop
         id="R"
         stop-color="#eeeeec" />
      <stop
         id="S"
         offset="1"
         stop-color="#d3d7cf" />
    </linearGradient>
    <linearGradient
       gradientTransform="matrix(0.26458333,0,0,0.26458333,52.916665,192.6171)"
       y1="2.438"
       x2="0"
       y2="43.34"
       id="F"
       xlink:href="#A"
       gradientUnits="userSpaceOnUse" />
    <linearGradient
       id="A">
      <stop
         id="P"
         stop-color="#fff"
         stop-opacity="0.8" />
      <stop
         id="Q"
         offset="1"
         stop-color="#fff"
         stop-opacity="0" />
    </linearGradient>
    <filter
       style="color-interpolation-filters:sRGB"
       x="-0.16"
       y="-0.15099999"
       width="1.321"
       height="1.302"
       id="I">
      <feGaussianBlur
         stdDeviation="0.5327"
         id="V" />
    </filter>
    <radialGradient
       cx="34.130001"
       cy="8.6090002"
       r="3.03"
       id="G"
       xlink:href="#B"
       gradientUnits="userSpaceOnUse"
       gradientTransform="matrix(0.52916663,5.4814956e-8,-5.7357922e-8,0.55371565,43.887761,190.12574)" />
    <linearGradient
       gradientTransform="matrix(0.26458333,0,0,0.26458333,52.916665,192.57778)"
       x1="34.130001"
       y1="8.75"
       x2="36.533001"
       y2="6.3629999"
       id="H"
       xlink:href="#A"
       gradientUnits="userSpaceOnUse" />
    <radialGradient
       cx="24.377001"
       cy="45.941002"
       r="23.08"
       id="L"
       xlink:href="#C"
       gradientUnits="userSpaceOnUse"
       gradientTransform="matrix(0.44714583,0,0,0.06507756,16.351995,299.12304)" />
    <linearGradient
       y1="4.2189999"
       x2="0"
       y2="43.780998"
       id="K"
       xlink:href="#A"
       gradientUnits="userSpaceOnUse"
       gradientTransform="matrix(0.44714583,0,0,0.44714583,12.816417,275.537)" />
    <linearGradient
       x1="4.0939999"
       y1="-58.009998"
       x2="15.298"
       y2="33.905998"
       id="J"
       xlink:href="#M"
       gradientUnits="userSpaceOnUse"
       gradientTransform="matrix(0.44714583,0,0,0.44714583,12.721579,300.9132)" />
    <linearGradient
       id="M">
      <stop
         id="W"
         stop-color="#eeeeec" />
      <stop
         id="X"
         offset="1"
         stop-color="#eeeeec"
         stop-opacity="0" />
    </linearGradient>
  </defs>
  <sodipodi:namedview
     id="base"
     pagecolor="#ffffff"
     bordercolor="#666666"
     borderopacity="1.0"
     inkscape:pageopacity="0.0"
     inkscape:pageshadow="2"
     inkscape:zoom="2.8"
     inkscape:cx="24.387453"
     inkscape:cy="95.478955"
     inkscape:document-units="pt"
     inkscape:current-layer="layer1"
     showgrid="true"
     units="px"
     inkscape:window-width="1366"
     inkscape:window-height="709"
     inkscape:window-x="0"
     inkscape:window-y="0"
     inkscape:window-maximized="1"
     inkscape:snap-page="true"
     inkscape:snap-grids="false"
     inkscape:snap-to-guides="true"
     inkscape:snap-bbox="true"
     inkscape:bbox-paths="true"
     inkscape:bbox-nodes="true"
     inkscape:snap-bbox-midpoints="true"
     inkscape:snap-bbox-edge-midpoints="true"
     inkscape:object-paths="true"
     inkscape:snap-intersection-paths="true"
     inkscape:snap-smooth-nodes="true"
     inkscape:snap-midpoints="true"
     inkscape:snap-object-midpoints="true"
     inkscape:snap-center="true"
     inkscape:snap-text-baseline="true"
     inkscape:snap-global="true"
     showguides="true"
     inkscape:guide-bbox="true"
     inkscape:pagecheckerboard="true">
    <inkscape:grid
       type="xygrid"
       id="grid5074"
       units="px"
       spacingx="0.26458333"
       spacingy="0.26458333" />
  </sodipodi:namedview>
  <metadata
     id="metadata4526">
    <rdf:RDF>
      <cc:Work
         rdf:about="">
        <dc:format>image/svg+xml</dc:format>
        <dc:type
           rdf:resource="http://purl.org/dc/dcmitype/StillImage" />
        <dc:title />
      </cc:Work>
    </rdf:RDF>
  </metadata>
  <g
     inkscape:label="Layer 1"
     inkscape:groupmode="layer"
     id="layer1"
     transform="translate(0,-263.13334)">
    <path
       style="opacity:1;fill:#ffffff;fill-opacity:1;fill-rule:nonzero;stroke:none;stroke-width:3.99999976;stroke-linecap:round;stroke-linejoin:round;stroke-miterlimit:4;stroke-dasharray:none;stroke-dashoffset:0;stroke-opacity:1;paint-order:stroke fill markers"
       d="M 64,0 C 28.653776,-1.1045696e-6 -1.1045696e-6,28.653776 0,64 -1.1045696e-6,99.346224 28.653776,128 64,128 99.346224,128 128,99.346224 128,64 128,28.653776 99.346224,-1.1045696e-6 64,0 Z m 0.107777,11.871421 C 96.116699,12.072539 115.32815,36.022159 115.90219,64.107777 116.49073,92.902997 95.465819,117.02445 64.081627,116.85687 32.161543,116.68643 10.367078,96.140025 10.83829,63.955357 11.284714,33.463706 33.705487,11.680397 64.107777,11.871421 Z"
       transform="matrix(0.26458333,0,0,0.26458333,0,263.13334)"
       id="path4641"
       inkscape:connector-curvature="0"
       sodipodi:nodetypes="ssssssssss" />
    <path
       style="opacity:1;fill:#ffffff;fill-opacity:1;fill-rule:nonzero;stroke:none;stroke-width:1.23424232;stroke-linecap:round;stroke-linejoin:round;stroke-miterlimit:4;stroke-dasharray:none;stroke-dashoffset:0;stroke-opacity:1;paint-order:stroke fill markers"
       d="m 16.96226,269.28393 c 2.073142,0 3.726834,0.56409 4.961076,1.69226 1.234242,1.12817 1.851364,2.49259 1.851364,4.09325 0,0.92568 -0.216957,1.77904 -0.65087,2.56009 -0.433914,0.78104 -1.282455,1.73083 -2.545625,2.84936 -0.848542,0.75212 -1.402987,1.30656 -1.663335,1.66334 -0.260349,0.35677 -0.453199,0.76658 -0.578551,1.22942 -0.125353,0.46284 -0.197672,1.21496 -0.216957,2.25635 h -2.502233 c -0.0096,-0.34713 -0.01446,-0.60748 -0.01446,-0.78105 0,-1.02211 0.144638,-1.9044 0.433914,-2.64687 0.212135,-0.55927 0.554444,-1.12335 1.026928,-1.69226 0.34713,-0.41463 0.969073,-1.01729 1.865827,-1.80797 0.906397,-0.80033 1.494591,-1.43673 1.764581,-1.90922 0.26999,-0.47248 0.404986,-0.98836 0.404986,-1.54763 0,-1.01246 -0.395343,-1.89958 -1.18603,-2.66133 -0.790686,-0.77141 -1.759759,-1.1571 -2.907219,-1.1571 -1.10889,0 -2.034571,0.34713 -2.777046,1.04139 -0.742475,0.69426 -1.229423,1.77904 -1.460843,3.25435 l -2.675801,-0.31821 c 0.241063,-1.97671 0.954609,-3.49058 2.140638,-4.54162 1.195672,-1.05103 2.772224,-1.57655 4.729656,-1.57655 z m -1.504233,18.60042 h 2.965075 v 2.96507 h -2.965075 z"
       id="path4667"
       inkscape:connector-curvature="0"
       sodipodi:nodetypes="sssscccccsccccscsscccsccccc" />
  </g>
</svg>
