<?xml version="1.0" encoding="UTF-8" standalone="no"?>
<svg
   xmlns:dc="http://purl.org/dc/elements/1.1/"
   xmlns:cc="http://creativecommons.org/ns#"
   xmlns:rdf="http://www.w3.org/1999/02/22-rdf-syntax-ns#"
   xmlns:svg="http://www.w3.org/2000/svg"
   xmlns="http://www.w3.org/2000/svg"
   xmlns:sodipodi="http://sodipodi.sourceforge.net/DTD/sodipodi-0.dtd"
   xmlns:inkscape="http://www.inkscape.org/namespaces/inkscape"
   version="1.1"
   id="Layer_1"
   x="0px"
   y="0px"
   viewBox="0 0 3779.5278 3325.9843"
   enable-background="new 0 0 2181.036 1678.764"
   xml:space="preserve"
   sodipodi:docname="rotto.svg"
   inkscape:version="0.92.2 5c3e80d, 2017-08-06"
   width="100cm"
   height="88cm"><metadata
     id="metadata21"><rdf:RDF><cc:Work
         rdf:about=""><dc:format>image/svg+xml</dc:format><dc:type
           rdf:resource="http://purl.org/dc/dcmitype/StillImage" /><dc:title></dc:title></cc:Work></rdf:RDF></metadata><defs
     id="defs19" /><sodipodi:namedview
     pagecolor="#ffffff"
     bordercolor="#666666"
     borderopacity="1"
     objecttolerance="10"
     gridtolerance="10"
     guidetolerance="10"
     inkscape:pageopacity="0"
     inkscape:pageshadow="2"
     inkscape:window-width="1366"
     inkscape:window-height="709"
     id="namedview17"
     showgrid="false"
     inkscape:zoom="0.12975486"
     inkscape:cx="1818.8144"
     inkscape:cy="2005.4933"
     inkscape:window-x="0"
     inkscape:window-y="0"
     inkscape:window-maximized="1"
     inkscape:current-layer="Layer_1"
     units="cm" /><g
     id="g830"
     transform="matrix(1.8045309,0,0,1.8045309,-92.327879,148.3031)"><path
       d="m 1958.415,39.652 c 111.759,0.406 148.423,-9.698 94.065,63.187 -65.643,76.413 -108.1,100.527 -131.04,121.47 -148.017,115.023 -183.125,121.432 -192.28,142.61 -6.118,14.437 -7.834,30.307 -13.548,44.925 -53.803,135.562 -76.572,175.55 -93.828,215.298 -6.784,12.034 -19.404,21.12 -33.154,23.099 1.05,-18.69 6.3,-61.737 -13.023,-99.159 -17.238,8.573 -28.347,41.666 -72.971,106.407 -2.645,4.563 -6.178,9.227 -6.34,14.699 2.1,7.875 7.915,14.376 9.086,22.594 2.821,20.3 -8.889,92.451 -25.602,113.333 -3.532,5.167 -65.99,8.6 -83.652,17.465 -7.627,3.738 -7.245,8.946 -34.931,60.513 -6.017,9.752 -12.498,20.413 -11.549,32.366 9.974,24.086 38.844,36.239 24.573,65.217 -35.099,70.953 -32.085,69.815 -38.444,69.518 -95.152,5.756 -55.849,-20.226 -110.244,70.164 -9.571,15.083 -19.202,30.448 -24.734,47.55 11.301,3.477 14.531,2.631 29.863,7.107 -0.222,7.37 -2.968,14.295 -6.38,20.756 -29.833,-10.067 -27.909,-21.655 -38.323,18.919 9.914,3.19 20.292,4.684 30.388,7.329 0.04,6.078 -2.342,11.691 -5.977,16.476 -11.246,0.04 -22.412,-1.918 -33.659,-1.333 -2.948,7.047 -4.078,14.639 -4.462,22.23 8.884,3.311 18.798,2.988 27.399,6.946 0.484,5.754 -1.393,11.307 -2.665,16.859 -11.691,0.848 -23.422,0.505 -35.133,1.09 -3.392,7.067 -5.916,14.517 -7.753,22.15 -6.773,-0.658 -72.1,-17.77 -100.128,-16.698 2.685,-8.662 7.006,-16.658 10.701,-24.896 -12.377,-2.08 -24.916,-2.504 -37.414,-2.706 1.878,-7.188 4.523,-14.194 8.157,-20.676 12.539,-0.828 25.098,3.311 37.495,1.454 6.401,-5.916 9.409,-14.598 10.52,-23.038 -11.913,-1.191 -23.825,-2.463 -35.799,-2.362 3.655,-7.43 7.572,-14.719 11.751,-21.847 12.458,1.09 24.916,2.544 37.434,2.342 4.482,-8.803 9.207,-17.526 12.862,-26.713 -10.116,-0.263 -20.151,-1.333 -30.165,-2.686 2.746,-5.936 4.583,-13.063 10.277,-16.94 9.429,0.464 18.778,2.12 28.167,3.19 9.03,-16.672 9.298,-22.291 15.164,-30.186 11.145,-4.058 23.401,0.262 34.789,-2.463 5.007,-2.564 7.41,-8.157 10.297,-12.68 28.579,-53.083 47.393,-70.288 40.443,-84.661 -16.207,-33.5 3.284,-26.614 -306.905,-26.975 -4.18,0.242 -8.036,-1.494 -10.661,-4.684 C 885.23,979.063 767.126,860.149 760.532,854.087 595.955,686.141 610.469,722.406 562.078,557.746 c -4.314,-14.679 -5.505,-31.416 -12.806,-44.543 -2.538,0.801 -6.342,0.457 -9.525,13.688 -2.417,10.046 7.472,88.971 11.908,106.025 16.171,91.346 56.405,118.641 80.017,148.223 7.83,9.365 -4.954,25.003 -13.912,53.385 -0.37,1.074 -40.349,110.675 -43.673,117.997 -4.139,9.692 -15.063,12.761 -24.149,15.911 -113.203,33.548 -243.417,152.442 -302.018,247.866 -39.802,60 -14.368,84.699 -2.988,112.909 11.973,23.725 20.857,48.822 31.761,73.031 17.649,40.116 -2.006,61.871 -17.486,64.268 -15.723,1.958 -132.889,4.974 -165.224,4.462 -9.344,-0.056 -34.939,-18.645 -37.051,-20.393 -34.303,-26.859 84.951,-428.927 343.289,-609.448 4.402,-2.706 6.401,-7.551 7.107,-12.458 74.689,-425.586 54.847,-371.6 120.299,-504.111 67.158,-124.786 43.042,-100.004 72.947,-106.857 56.807,-13.018 114.076,-24.319 171.148,-35.614 115.88,-22.933 8.498,-9.927 223.733,117.676 71.502,42.391 186.646,89.325 263.11,89.245 -0.817,22.531 -8.497,1.283 -81.976,89.871 -13.487,22.427 -20.224,15.457 2.584,81.168 1.458,4.332 37.021,133.108 58.615,182.406 19.319,7.37 86.635,-7.043 108.325,-7.733 27.818,-1.784 10.49,-22.867 17.768,-54.597 6.603,-5.048 14.982,-6.764 22.654,-9.631 11.711,-3.796 22.473,-9.995 34.083,-14.093 10.58,-3.836 22.493,1.05 32.811,-3.574 12.034,-7.733 17.91,-21.483 25.744,-32.911 71.246,-115.058 87.949,-115.229 18.434,-123.671 1.226,-45.289 73.83,-122.243 103.661,-143.882 53.673,-39.777 60.129,-148.868 88.316,-232.864 10.07,-29.891 5.018,-36.85 50.801,-52.194 18.697,-4.805 36.869,-11.65 56.031,-14.618 m 64.308,30.306 c -7.453,6.197 -107.1,142.805 -110.243,167.748 20.643,-11.89 23.598,-27.476 136.593,-151.696 4.563,-6.401 12.296,-12.296 11.428,-20.999 -12.64,-1.211 -26.652,-2.382 -37.778,4.947 m 49.549,0.788 C 1899.58,95.722 1797.518,216.942 1792.216,234 c 2.383,-0.141 4.765,-0.444 7.168,-0.888 25.45,-15.555 148.234,-144.796 148.607,-148.263 -0.358,-13.028 -29.049,-9.973 -37.718,-1.07 m -95.281,3.836 c -13.431,16.32 -98.024,150.456 -93.586,163.003 2.035,-1.759 118.211,-151.393 124.559,-165.628 -10.177,-1.333 -21.726,-2.16 -30.973,2.625 m -48.701,15.749 c -4.325,8.1 -42.311,87.888 -42.24,104.65 12.201,-5.436 32.48,-48.479 44.037,-66.348 27.857,-44.113 26.311,-40.895 25.34,-49.973 -10.076,-1.009 -22.11,2.121 -27.137,11.671 M 881.86,352.098 c -0.162,1.312 -0.485,3.957 -0.646,5.27 25.95,21.474 211.294,24.941 220.002,208.332 -1.09,50.013 -25.501,99.32 -65.48,129.647 -58.368,50.054 -179.333,39.637 -230.481,-15.204 -82.064,-91.726 -64.214,-175.515 -77.514,-205.667 -3.634,1.232 -7.774,2.685 -8.924,6.825 -44.297,110.875 44.73,245.946 147.516,272.822 7.523,1.498 79.905,100.858 98.29,119.955 18.034,21.058 17.013,25.637 38.02,25.986 10e-4,0 299.007,-0.06 299.01,-0.061 11.771,-0.02 16.981,-12.66 22.715,-20.938 26.672,-46.607 25.042,-39.305 24.149,-48.317 0.104,1.05 -80.559,16.156 -88.424,17.156 -27.002,3.434 -54.217,4.747 -81.314,3.95 -27.152,-0.798 -11.479,2.619 -49.88,-57.147 -5.395,-8.354 -48.579,-85.301 -48.883,-86.297 -2.267,-12.916 17.596,-15.815 35.193,-54.597 61.836,-119.812 -21.264,-317.384 -233.349,-301.715 z"
       id="path2"
       inkscape:connector-curvature="0"
       style="fill:#ffffff;fill-opacity:1" /><path
       d="m 2072.549,120.668 c -0.834,72.154 -245.001,234.407 -264.059,245.12 -10.943,7.43 -23.765,14.154 -29.58,26.713 -17.546,29.156 -35.597,58.09 -50.458,88.74 -32.057,76.352 -75.704,144.191 -88.417,146.87 0.238,-9.669 3.715,-7.365 26.511,-53.042 18.543,-31.503 84.621,-193.915 84.621,-193.915 12.559,-16.9 33.477,-23.24 50.256,-34.708 56.451,-33.714 139.004,-98.717 163.508,-123.247 89.14,-77.794 95.861,-104.7 107.618,-102.531 z"
       id="path4"
       inkscape:connector-curvature="0"
       style="fill:#ffffff;fill-opacity:1" /><path
       d="m 1183.313,515.061 c -0.222,-4.604 2.746,-11.105 8.379,-9.348 2.019,0.63 130.495,144.766 144.225,170.574 1.656,7.632 -0.868,15.406 -1.555,23.058 -0.776,8.653 -88.86,18.514 -89.729,14.073 -3.707,-19.925 -40.531,-123.525 -50.882,-163.063 -3.089,-11.873 -9.994,-22.796 -10.438,-35.294 z"
       id="path6"
       inkscape:connector-curvature="0"
       style="fill:#ffffff;fill-opacity:1" /><path
       d="m 1441.133,849.284 c 27.804,-2.976 20.902,9.589 56.414,41.089 72.549,78.574 141.668,151.75 194.445,249.1 83.417,153.866 71.087,154.249 -87.412,161.535 -63.58,2.923 -32.845,-64.775 -44.44,-156.994 -18.348,-119.901 -140.212,-150.522 -154.24,-158.197 -1.615,-7.895 2.382,-16.012 -0.041,-23.745 -22.181,-49.666 -41.811,-16.732 -2.322,-93.02 7.009,-13.457 10.835,-15.396 37.596,-19.768 z"
       id="path8"
       inkscape:connector-curvature="0"
       style="fill:#ffffff;fill-opacity:1" /><path
       d="m 1432.007,1381.804 c 6.461,11.388 7.168,24.775 11.671,36.849 12.754,13.414 189.168,-10.201 277.022,-3.776 -3.998,13.225 -11.691,25.017 -16.557,37.979 -100.679,19.091 -34.891,3.494 -49.61,95.766 -0.404,0.727 -1.191,2.16 -1.595,2.887 -38.444,-0.121 -77.695,-1.191 -114.968,9.772 -2.891,16.888 2.711,31.276 -11.913,78.099 -17.405,-9.853 -34.567,-20.676 -53.749,-26.753 -20.474,-8.319 -43.875,-9.066 -62.027,-22.755 54.728,-0.62 73.983,6.934 90.476,11.105 0.666,-12.68 -0.868,-25.279 -1.272,-37.919 15.163,-7.188 32.124,-9.126 47.651,-15.386 95.918,-38.191 89.036,-31.249 90.537,-39.756 1.793,-9.62 8.668,-49.163 1.393,-56.212 -20.635,-4.543 -42.038,-1.696 -62.875,-4.583 -146.702,-6.941 -185.867,27.975 -182.972,-1.292 -1.131,-13.871 15.668,-22.13 12.175,-36.506 -25.675,-12.709 -178.193,-9.819 -215.055,-10.923 50.874,-4.798 190.231,-17.255 241.668,-16.596 z"
       id="path10"
       inkscape:connector-curvature="0"
       style="fill:#ffffff;fill-opacity:1" /><path
       d="m 2129.872,1393.999 c -16.37,12.435 -130.615,54.916 -139.581,62.229 -5.29,3.473 -11.287,9.005 -18.051,6.057 -15.881,-5.672 -68.712,-19.645 -85.61,-19.424 -3.635,10.943 -1.211,23.199 -7.107,33.517 -16.58,2.695 -78.92,9.85 -94.716,16.496 0.04,0.686 0.121,2.039 0.161,2.726 9.207,5.229 19.989,6.562 29.641,10.802 116.309,48.726 97.98,47.574 117.977,33.174 5.492,-3.796 10.802,-8.5 17.344,-10.378 9.299,0.205 37.365,7.892 46.46,15.204 16.274,12.034 34.325,21.524 50.054,34.285 -12.408,-4.921 -83.248,-18.819 -97.826,-16.476 -8.642,5.149 -10.822,16.456 -19.161,21.928 -5.512,1.514 -9.349,-3.049 -13.104,-6.138 -37.473,-30.837 -94.522,-41.463 -132.494,-51.124 -0.626,-6.562 -1.514,-13.104 -2.685,-19.565 -38.248,-4.162 -38.372,4.316 -64.753,2.14 -7.854,-13.286 -12.761,-28.167 -15.224,-43.35 9.286,-3.576 84.997,-23.623 129.788,-15.285 16.494,-24.146 14.471,-30.13 14.154,-47.833 12.781,-1.656 81.836,5.443 119.976,17.183 11.388,3.331 22.15,11.529 34.608,8.44 23.018,-6.724 45.046,-16.436 68.064,-23.22 45.73,-9.553 41.912,-12.339 62.085,-11.388 z"
       id="path12"
       inkscape:connector-curvature="0"
       style="fill:#ffffff;fill-opacity:1" /></g></svg>